<?xml version="1.0" encoding="UTF-8"?>
<svg id="Camada_2" data-name="Camada 2" xmlns="http://www.w3.org/2000/svg" viewBox="0 0 152 196.76">
  <defs>
    <style>
      .cls-1, .cls-2 {
        fill: #0b0b0f;
      }

      .cls-1, .cls-3, .cls-4, .cls-5, .cls-6, .cls-7, .cls-8, .cls-9 {
        fill-rule: evenodd;
      }

      .cls-3, .cls-10 {
        fill: #36302e;
      }

      .cls-4 {
        fill: #ff2b2b;
      }

      .cls-5 {
        fill: #a22020;
      }

      .cls-6 {
        fill: #f2f2f2;
      }

      .cls-11 {
        fill: none;
        stroke: #666;
        stroke-linecap: round;
        stroke-width: 7px;
      }

      .cls-7 {
        fill: #e4e4e4;
      }

      .cls-8 {
        fill: #cf1f1f;
      }

      .cls-9 {
        fill: #b28b67;
      }
    </style>
  </defs>
  <g id="Camada_1-2" data-name="Camada 1">
    <path class="cls-9" d="m60.64,34.47c-2.58-3.03-4.33-6.75-4.04-10.91.84-12,17.53-9.36,20.77-3.3,3.25,6.05,2.86,21.41-1.33,22.49-1.67.43-5.24-.63-8.86-2.81l2.28,16.12h-13.44l4.63-21.59Z"/>
    <path class="cls-1" d="m72.07,13.66c-1.84-.56-4.5-.75-5.63-.62.64-1.53.89-3.23.68-4.89-.2-1.61-.92-2.99-1.59-4.42-.31-.66-.65-1.32-1.17-1.83-.53-.52-1.2-.86-1.9-1.02-.72-.17-1.47-.15-2.19,0-.32.07-.6.21-.92.29-.32.08-.47-.12-.71-.32-.56-.48-1.38-.72-2.08-.81-.79-.1-1.62.02-2.37.28-.74.25-1.44.67-1.98,1.27-.24.27-.45.57-.59.91-.06.14-.07.22-.2.27-.13.05-.28.05-.41.09-1.27.43-2.35,1.41-2.95,2.67-.34.74-.51,2.03-.46,3.48.04,1.45,1.35,5.24,2.58,6.62,1.09,1.23,2.7,2.05,4.25,2.4-1.03,1.18-1.71,2.65-2.22,4.14-.55,1.62-.89,3.31-1.02,5.03-.12,1.63-.13,3.36.25,4.96.36,1.5,1.12,2.72,2.4,3.5.59.36,1.22.62,1.85.87.62.24,1.25.48,1.91.61,1.24.26,2.67.21,3.62-.77.34-.36.72-.8.97-1.24.09-.16.14-.26.03-.41-.13-.18-.34-.32-.51-.47-.96-.82-1.56-1.9-1.71-3.2-.15-1.31.2-3.01,1.48-3.58,1.57-.71,3.31.1,4.71.86.59-2.1,1.82-3.99,3.73-4.96,2.12-1.07,4.55-1.19,6.73-2.11.57-.24,1.15-.51,1.56-.99.17-.2.38-.47.45-.73.09-.35-.14-.65-.31-.92-.93-1.46-4.46-4.4-6.3-4.96Z"/>
    <path class="cls-9" d="m122.61,112.73c4.02-5.46,14.07-1.85,14.07,2.67-.02,11.86-10.83,68.19-11.4,71.75s-6.62,4.72-6.97.28c-.56-7.07-1.6-31.58-.56-42.98.3-3.33.62-6.55.95-9.57-5.69,10.22-14.33,24.67-25.94,43.35l-6.45-2.95c5.07-16.7,9.22-28.49,12.46-35.37,5.55-11.78,10.76-21.87,12.95-25.42,2.89-4.69,7.59-4.07,10.89-1.75Z"/>
    <path class="cls-8" d="m86.77,165.99l22.14-52.49c5.3-8.54,20.18,1.74,18.37,6.69-4.11,11.24-24.99,47.64-26.22,50.99l-14.29-5.19Z"/>
    <path class="cls-4" d="m137.24,119.5c0,14.88-6.52,49.85-6.52,53.13l-15.79-.53c2.76-30.41,3.92-45.71,3.49-45.92-.97-.46-39.85,5.39-51.51,5.83-16.82.64-23.77-9.69-24.34-29.28h32.57c27.85,3.33,46.16,5.64,54.92,6.94,5.62.84,7.18,5.74,7.18,9.83Z"/>
    <path class="cls-7" d="m85.43,173.62c-1.01,1.47-1.62,2.61-1.82,3.42-.24.98-.44,2.45-.58,4.41,1.14.28,11.36,2.83,30.66,7.65,1.45-2.44,1.35-3.97-.32-4.61-1.66-.64-3.04-1.18-4.14-1.64l-12.67-9.91c-.24-.19-.6-.15-.79.1,0,0,0,0,0,.01l-1.47,1.99c-1.77.35-3.16.39-4.15.15-.81-.2-1.84-.81-3.1-1.81h0c-.48-.39-1.19-.31-1.57.18-.02.02-.03.04-.05.06Z"/>
    <path class="cls-7" d="m117.45,179.04c-.63,1.67-.94,2.93-.94,3.76,0,1.01.17,2.49.5,4.43h31.59c.82-2.72.35-4.18-1.42-4.4-1.77-.22-3.24-.41-4.41-.59l-14.68-6.55c-.28-.13-.61,0-.74.28,0,0,0,0,0,.01l-.94,2.29c-1.64.76-2.97,1.15-3.99,1.15-.83,0-1.98-.34-3.45-1.01h0c-.56-.26-1.23-.01-1.49.55-.01.03-.02.05-.03.07Z"/>
    <path class="cls-10" d="m144.8,187.23h-25.77c-1.08,0-1.96.88-1.96,1.96s.88,1.96,1.96,1.96h25.77c1.08,0,1.96-.88,1.96-1.96s-.88-1.96-1.96-1.96Z"/>
    <path class="cls-3" d="m40.89,105.94h59.94c3.09,0,5.6,2.51,5.6,5.61v27.47H37.53c-1.24,0-2.24-1-2.24-2.24v-25.22c0-3.1,2.51-5.61,5.6-5.61Z"/>
    <path class="cls-3" d="m100.83,105.94h1.23c2.74,0,5.08,1.99,5.53,4.7l12.29,74.9h-5.99"/>
    <path class="cls-2" d="m117.07,196.76c5.57,0,10.08-4.52,10.08-10.09s-4.51-10.09-10.08-10.09-10.08,4.52-10.08,10.09,4.51,10.09,10.08,10.09Z"/>
    <path class="cls-1" d="m42.57,195.63c-23.51,0-42.57-19.07-42.57-42.6s19.06-42.6,42.57-42.6,42.57,19.07,42.57,42.6-19.06,42.6-42.57,42.6Zm0-7.85c19.18,0,34.73-15.56,34.73-34.76s-15.55-34.75-34.73-34.75-34.73,15.56-34.73,34.75,15.55,34.76,34.73,34.76Z"/>
    <path class="cls-2" d="m44.81,116.04h-4.48v73.99h4.48v-73.99Z"/>
    <path class="cls-2" d="m69.51,127.66l-1.58-1.58c-.44-.44-1.15-.44-1.58,0l-50.7,50.74c-.44.44-.44,1.15,0,1.58l1.58,1.59c.44.44,1.15.44,1.58,0l50.7-50.74c.44-.44.44-1.15,0-1.59Z"/>
    <path class="cls-2" d="m79.54,154.15v-2.24c0-.62-.5-1.12-1.12-1.12H6.72c-.62,0-1.12.5-1.12,1.12v2.24c0,.62.5,1.12,1.12,1.12h71.7c.62,0,1.12-.5,1.12-1.12Z"/>
    <path class="cls-2" d="m67.92,179.99l1.58-1.59c.44-.44.44-1.15,0-1.58l-50.7-50.74c-.44-.44-1.15-.44-1.58,0l-1.58,1.58c-.44.44-.44,1.15,0,1.59l50.7,50.74c.44.44,1.15.44,1.58,0Z"/>
    <path class="cls-9" d="m99.4,45.04l21.23-6.38c3.96-3.09,7.7-5.34,11.21-6.77,1.02-.19,2.71-.08.6,2.32-2.11,2.4-4.23,5.02-3.62,6.02s2.8.25,3.44,1.84c.42,1.06-3.22,1.82-10.92,2.28l-16.51,9.72-5.42-9.04Zm-1.88,37.46l17.87,13.13c4.85,1.31,8.9,2.94,12.15,4.88.77.7,1.7,2.12-1.49,1.87-3.19-.25-6.55-.36-6.99.73-.44,1.09,1.49,2.39.6,3.86-.59.98-3.39-1.48-8.4-7.36l-17.69-7.34,3.95-9.77Z"/>
    <path class="cls-5" d="m69.77,47.14c9.73,18.16,23.8,32.07,44.2,46.54l-7.72,8.71c-22.78-8.47-34.8-13.58-40.7-30.73-1.48-4.31-2.52-18.03-3.41-25.25l7.63.73Z"/>
    <path class="cls-6" d="m42.57,107.63h43.13c-9.77-29.82-14.76-50.28-14.97-61.4-.01-.57-1.06-1.56-1.52-1.43-3.38.96-7,.6-10.86-1.07-10.23,16.46-13.76,36.72-15.78,63.9Z"/>
    <path class="cls-8" d="m62.03,43.75c12.36.1,32.42,2.36,55.56-5.07l2.28,11.42c-17.48,11.25-35.19,19.97-50.7,18.73,6.74,28.92,6.43,52.59-8.45,52.59h-23c-3.65-24.56,5.95-58.62,14.85-75.8.34-.66,1.06-1.89,2.77-1.89h6.68s0,.02,0,.03Z"/>
    <path class="cls-11" d="m103,103.5l25.02,3.57c1.83.26,3.66-.51,4.75-2l15.73-21.57"/>
  </g>
</svg>