<?xml version="1.0" encoding="UTF-8"?>
<svg id="Camada_2" data-name="Camada 2" xmlns="http://www.w3.org/2000/svg" viewBox="0 0 141.74 203">
  <defs>
    <style>
      .cls-1 {
        fill: #c5cfd6;
      }

      .cls-1, .cls-2, .cls-3, .cls-4, .cls-5, .cls-6, .cls-7, .cls-8, .cls-9 {
        fill-rule: evenodd;
      }

      .cls-2 {
        fill: #ffc42b;
      }

      .cls-3 {
        fill: #a28d20;
      }

      .cls-4 {
        fill: #997659;
      }

      .cls-5 {
        fill: #cfa81f;
      }

      .cls-6 {
        fill: #473f18;
      }

      .cls-7 {
        fill: #e4e4e4;
      }

      .cls-8 {
        fill: #b28b67;
      }

      .cls-9 {
        fill: rgba(124, 124, 124, .1);
      }
    </style>
  </defs>
  <g id="Camada_1-2" data-name="Camada 1">
    <path class="cls-8" d="m94.14,30.32c2.77-3.25,4.64-7.23,4.33-11.69-.9-12.85-18.79-10.03-22.27-3.54-3.48,6.49-3.07,22.94,1.43,24.1,1.79.46,5.62-.67,9.5-3.01l-2.44,17.27h14.41l-4.96-23.13Z"/>
    <path class="cls-6" d="m104.75,14.36c.47-.46.72-1.12.94-1.75.23-.65.45-1.31.6-1.98.3-1.35.31-2.9-.66-3.95-.77-.84-1.93-1.22-3-1.3-.71-.05-1.44.05-2.13.27-.68.22-1.26.67-1.92.94-.03-1.46-.27-2.98-1.01-4.22-.71-1.2-1.84-1.87-3.13-2.04-1.32-.18-2.63.13-3.82.77-.3.16-.59.33-.87.52-.24.16-.48.35-.76.42-.31.07-.46-.11-.66-.33-.23-.26-.5-.5-.78-.7-1.24-.91-2.86-1.28-4.3-.74-.66.25-1.3.68-1.75,1.27-.4.52-.68,1.36-1.24,1.72-.23.16-.4-.05-.61-.2-.32-.23-.63-.48-.95-.7-.46-.31-.95-.55-1.48-.67-.77-.18-1.84-.14-2.06.88-.08.38-.02.79,0,1.17.04.53.08,1.05.12,1.58.03.4.08.78.15,1.18.04.21.17.6.08.81-.11.26-.63.11-.85.12-.44.02-.87.09-1.28.28-.31.14-.64.36-.77.71-.08.22-.06.45-.02.67.05.27,0,.42-.04.69-.58-.29-2.61-.93-2.87.12-.08.35.11.74.26,1.04.26.52.6.99.94,1.44.72.94,1.59,1.75,2.52,2.44-1.09.48-1.37,1.91-.43,2.76.42.38.98.46,1.5.44.19,0,.47-.08.62-.05.08.02.17.09.28.09.74.05,1.58-.13,2.3-.29,1.29-.29,2.51-.9,3.51-1.84.26-.24.47-.38.81-.37.3,0,.6.09.9.09.8.02,1.52-.37,2.26-.63.05,1,.33,2.1.74,3,.33.73,1.03.84,1.72.91,2.19.21,4.39-.02,6.58-.02-2.12.48-4.32.68-6.42,1.24-.95.26-.22.9.18,1.34.67.73,1.17,1.64,1.51,2.59,1.04-1.35,2.88-2.25,4.5-1.83,1.8.46,3.06,2.89,1.91,4.64-.67,1.01-1.87,1.41-2.88,1.84.78.81.97,2.01,1.44,3.03.23.5.56,1.06,1.08,1.24.19.06.42.07.57.23.19.19.23.41.47.58.96.67,2.45.61,3.3-.25.77-.79.57-2.03-.07-2.82,1.02-.42,2.88-.97,2.47-2.56,2.21-.15,7.57-3.73,4.61-6.35,1.63-.92,3.12-3.17,2.08-5.15-.81-1.53-2.68-2.21-4.21-2.29Z"/>
    <path class="cls-1" d="m125.15,128.53h-46.4l-6.08,74.47h69.07l-16.59-74.47Z"/>
    <path class="cls-9" d="m125.15,128.53h-14.27l-8.54,74.47h39.4l-16.59-74.47Z"/>
    <path class="cls-8" d="m25.85,115.77c-4.95-2.97-13.25.85-13.24,5.09.02,12.71,11.62,72.62,12.22,76.41.61,3.79,7.09,4.79,7.47.01.6-7.6,1.72-33.9.6-46.07-.46-5.03-.96-9.81-1.45-14.08,6.09,10.99,15.5,26.73,28.24,47.22l6.92-3.16c-5.43-17.9-9.89-30.53-13.36-37.9-5.95-12.62-11.53-23.43-13.88-27.24-3.69-5.99-10.13-3.9-13.52-.27Z"/>
    <path class="cls-5" d="m66.13,171.24l-23.74-56.24c-5.69-9.15-21.63,1.86-19.69,7.17,4.4,12.05,26.8,51.05,28.11,54.64l15.32-5.56Z"/>
    <path class="cls-7" d="m67.44,177.63c1.48,1.22,2.44,2.21,2.89,2.98.54.94,1.18,2.4,1.9,4.38-1.09.63-10.87,6.27-29.34,16.94-2.22-2.08-2.56-3.7-1.04-4.84,1.53-1.15,2.79-2.12,3.78-2.91l10.13-13.95c.19-.27.57-.33.84-.13,0,0,0,0,.01.01l2.1,1.62c1.93-.17,3.37-.53,4.32-1.08.77-.45,1.66-1.37,2.66-2.78h0c.38-.54,1.13-.67,1.67-.28.02.02.05.03.07.05Z"/>
    <path class="cls-7" d="m33.83,194.23c.67,1.79,1.01,3.13,1.01,4.03,0,1.08-.18,2.66-.54,4.74H.42c-.88-2.91-.37-4.48,1.52-4.71,1.9-.23,3.47-.44,4.73-.63l15.74-7.02c.3-.14.66,0,.79.3,0,0,0,.01,0,.02l1.01,2.46c1.76.82,3.18,1.23,4.28,1.23.89,0,2.12-.36,3.69-1.08h0c.6-.28,1.32-.01,1.59.59.01.03.02.05.03.08Z"/>
    <path class="cls-2" d="m10.95,125.18c0,15.96,7.58,53.18,7.58,56.69h16.3c-2.39-33.2-3.23-49.98-2.54-50.34,1.04-.54,42.67,4.16,55.16,4.16,18,0,25.45-11.35,26.06-32.39h-35.67c-7.26.78-45.14,8.42-59.21,11.04-6.02,1.12-7.69,6.44-7.69,10.84Z"/>
    <path class="cls-4" d="m72.29,65.89l-20.85-11.42c-3.47-4.12-6.88-7.31-10.25-9.59-1.03-.43-2.83-.69-1.14,2.3,1.68,2.98,3.32,6.2,2.46,7.12-.86.92-2.99-.36-4.01,1.16-.68,1.02,2.97,2.63,10.95,4.83l15.15,13.87,7.7-8.26Zm-32.65,9.63l-9.16-5.03c-1.28-4.89-2.82-7.35-4.61-7.38-1.37-.64,1.02,5.54-1.58,5-2.6-.54-8.95-5.26-10.05-4.3-1.62,1.42-.18,5.78,1.53,7.94,3.18,4.05,5.81,5.44,12.32,7.25,3.4.95,7.08,2.85,11.03,5.7l.52-9.19Z"/>
    <path class="cls-3" d="m82.44,63.34c-7.3-.08-17.04-1.62-27.43-8.21l-4.08,9.1c7.17,7.11,17.24,12.96,26.05,12.71,6.94-.19,10.49-8.59,5.45-13.59Z"/>
    <path class="cls-5" d="m72.61,77.93c-7.75,1.93-20.75-.35-39-6.84-4.53,9.36-6.62,16.04-6.28,20.03,15.65,8.18,29.07,11.82,40.12,12.06-.35,6.56.45,12.8,3.13,18.5,5.51,11.72,37.79.87,48.65,3,6.8-22.07-6.35-31.05-6.36-45.17-.01-15.47-12.43-39.28-14.26-39.28h-16.66c-.92,11.81-5.55,24.83-9.35,37.69Z"/>
  </g>
</svg>