<?xml version="1.0" encoding="UTF-8"?>
<svg id="Camada_2" data-name="Camada 2" xmlns="http://www.w3.org/2000/svg" viewBox="0 0 388.88 616.61">
  <defs>
    <style>
      .cls-1 {
        fill: #2f2e41;
      }

      .cls-2 {
        fill: #fff;
      }

      .cls-3 {
        fill: #3f3d56;
      }

      .cls-4 {
        fill: #536dfe;
      }

      .cls-5 {
        fill: #e6e6e6;
      }

      .cls-6 {
        fill: #a0616a;
      }

      .cls-7 {
        fill: #ccc;
      }
    </style>
  </defs>
  <g id="Camada_1-2" data-name="Camada 1">
    <path class="cls-5" d="m275.26,460.4H31.22c-17.23-.03-31.2-18.44-31.22-41.17V41.17C.02,18.44,13.98.03,31.22,0h227.04l48.22,50.69v368.54c-.02,22.73-13.98,41.15-31.22,41.17Z"/>
    <path class="cls-2" d="m31.19,8c-12.25.02-22.17,13.32-22.19,29.74v383.43c.01,16.42,9.94,29.72,22.19,29.74h243.6c12.25-.02,22.17-13.32,22.19-29.74V53.18l-42.3-45.18H31.19Z"/>
    <path class="cls-4" d="m223.29,189.01h-117.46c-3.04,0-5.49-2.47-5.49-5.5,0-3.03,2.46-5.49,5.49-5.49h117.46c3.04,0,5.5,2.45,5.5,5.49,0,3.04-2.45,5.5-5.49,5.5h-.01Z"/>
    <path class="cls-4" d="m245.96,207.55H105.83c-3.04,0-5.5-2.46-5.5-5.5s2.46-5.5,5.5-5.5h140.13c3.04,0,5.5,2.46,5.5,5.5s-2.46,5.5-5.5,5.5Z"/>
    <path class="cls-7" d="m223.29,261.13h-117.46c-3.03,0-5.5,2.45-5.5,5.49s2.45,5.5,5.49,5.5h117.47c3.03,0,5.49-2.47,5.49-5.5,0-3.03-2.46-5.48-5.49-5.49Z"/>
    <path class="cls-7" d="m245.96,279.68H105.83c-3.03,0-5.5,2.45-5.5,5.49s2.45,5.5,5.49,5.5h140.14c3.03,0,5.49-2.47,5.49-5.5,0-3.03-2.46-5.48-5.49-5.49Z"/>
    <path class="cls-7" d="m223.29,355.24h-117.46c-3.04,0-5.49-2.47-5.49-5.5,0-3.03,2.46-5.49,5.49-5.49h117.46c3.04,0,5.5,2.45,5.5,5.49,0,3.04-2.45,5.5-5.49,5.5h-.01Z"/>
    <path class="cls-7" d="m245.96,373.79H105.83c-3.04,0-5.5-2.46-5.5-5.5s2.46-5.5,5.5-5.5h140.13c3.04,0,5.5,2.46,5.5,5.5s-2.46,5.5-5.5,5.5Z"/>
    <circle id="abdb8e2f-a218-463c-85f4-c869fef49971" class="cls-4" cx="56.92" cy="192.78" r="19.42"/>
    <path id="ba7dbbd6-0052-44b1-a552-47a8298b8d3e-569" class="cls-2" d="m54.99,200.19c-.44,0-.86-.14-1.21-.4l-.02-.02-4.56-3.49c-.89-.68-1.06-1.95-.38-2.84.68-.89,1.95-1.06,2.84-.38,0,0,0,0,0,0l2.96,2.27,6.99-9.11c.68-.89,1.95-1.06,2.84-.38h0s0,0,0,0l-.04.06.04-.06c.89.68,1.06,1.95.38,2.84l-8.22,10.72c-.39.5-.98.79-1.61.79h0Z"/>
    <path class="cls-4" d="m223.29,119.78h-117.46c-3.04,0-5.49-2.47-5.49-5.5,0-3.03,2.46-5.49,5.49-5.49h117.46c3.04,0,5.5,2.45,5.5,5.49,0,3.04-2.45,5.5-5.49,5.5h-.01Z"/>
    <path class="cls-4" d="m245.96,138.33H105.83c-3.04,0-5.5-2.46-5.5-5.5s2.46-5.5,5.5-5.5h140.13c3.04,0,5.5,2.46,5.5,5.5s-2.46,5.5-5.5,5.5Z"/>
    <circle id="abdb8e2f-a218-463c-85f4-c869fef49971-2" data-name="abdb8e2f-a218-463c-85f4-c869fef49971" class="cls-4" cx="56.92" cy="123.56" r="19.42"/>
    <path id="ba7dbbd6-0052-44b1-a552-47a8298b8d3e-569-2" data-name="ba7dbbd6-0052-44b1-a552-47a8298b8d3e-569" class="cls-2" d="m54.99,130.97c-.44,0-.86-.14-1.21-.4l-.02-.02-4.56-3.49c-.89-.68-1.06-1.95-.38-2.84.68-.89,1.95-1.06,2.84-.38,0,0,0,0,0,0l2.96,2.27,6.99-9.11c.68-.89,1.95-1.06,2.84-.38h0s0,0,0,0l-.04.06.04-.06c.89.68,1.06,1.95.38,2.84l-8.22,10.72c-.39.5-.98.79-1.61.79h0Z"/>
    <path class="cls-7" d="m78.33,275.9c0,10.73-8.69,19.43-19.42,19.43h0c-.17,0-.33,0-.5-.02-10.72-.27-19.19-9.19-18.92-19.91.28-10.72,9.19-19.19,19.91-18.92,10.53.27,18.93,8.89,18.92,19.42Z"/>
    <circle id="e4a71040-498e-4958-ad41-c2d79154b8f7" class="cls-7" cx="56.92" cy="359.02" r="19.42"/>
    <path class="cls-7" d="m296.44,53.18h-30.86c-4.69,0-8.5-5.4-8.5-12.06h0V8.75c0-.42.24-.75.53-.75.12,0,.24.06.33.16l38.83,43.68c.23.26.27.73.09,1.06-.1.18-.25.29-.42.29Z"/>
    <path class="cls-4" d="m78.33,275.9c0,10.73-8.69,19.43-19.42,19.43h0c-.17,0-.33,0-.5-.02-5.09-12.7-3.69-27.09,3.77-38.56,9.33,1.6,16.15,9.69,16.15,19.15Z"/>
    <path class="cls-4" d="m100.33,266.63c0-3.04,2.46-5.49,5.5-5.5h29.27c1.71,3.48,2.92,7.18,3.61,10.99h-32.88c-3.03,0-5.49-2.46-5.5-5.49Z"/>
    <path class="cls-4" d="m139.39,279.68c0,3.71-.49,7.41-1.46,10.99h-32.1c-3.03,0-5.5-2.45-5.5-5.49s2.45-5.5,5.49-5.5h33.57Z"/>
    <path class="cls-3" d="m211.82,347.46c-1.73,2.83-5.42,3.72-8.25,2l-70-42.7c-2.83-1.73-3.72-5.42-2-8.25,1.73-2.83,5.42-3.72,8.25-2l70,42.7c2.83,1.73,3.72,5.42,2,8.25Z"/>
    <path class="cls-3" d="m141.81,304.76c-13.8,22.63-43.34,29.79-65.97,15.98-22.63-13.8-29.79-43.34-15.98-65.97,13.8-22.63,43.34-29.79,65.97-15.98h0c22.61,13.82,29.76,43.34,15.98,65.97Zm-71.71-43.74c-10.35,16.97-4.99,39.13,11.99,49.48,16.97,10.35,39.13,4.99,49.48-11.99,10.35-16.97,4.99-39.13-11.99-49.48-16.98-10.33-39.11-4.97-49.48,11.99Z"/>
    <circle class="cls-6" cx="295.6" cy="262.9" r="24.56"/>
    <path class="cls-6" d="m294.02,400.59c-1.86-5.79,1.33-11.98,7.11-13.84.4-.13.8-.23,1.21-.31.48-.09.97-.15,1.46-.18l25.87-41.52-23.63-22.47c-3.78-3.59-3.93-9.56-.34-13.33s9.56-3.93,13.33-.34c.04.04.08.08.12.12l32.63,32.17.07.08c2.07,3.15,1.83,7.29-.59,10.18l-36.25,42.87c.11.34.2.69.27,1.05,1.19,5.96-2.68,11.75-8.64,12.94-.41.08-.82.14-1.24.17-.31.03-.62.04-.93.04-4.77-.02-8.99-3.1-10.46-7.64Z"/>
    <polygon class="cls-6" points="255.15 604.73 242.89 604.72 237.06 557.44 255.15 557.44 255.15 604.73"/>
    <path class="cls-1" d="m258.28,616.61h-39.53v-.5c0-8.5,6.89-15.39,15.39-15.39h24.15s0,15.89,0,15.89Z"/>
    <polygon class="cls-6" points="377.01 587.77 366.47 594.05 337.27 556.4 352.82 547.14 377.01 587.77"/>
    <path class="cls-1" d="m385.77,596.39l-33.97,20.22-.26-.43c-4.35-7.3-1.95-16.74,5.35-21.09,0,0,0,0,0,0h0s20.75-12.35,20.75-12.35l8.13,13.65Z"/>
    <path class="cls-1" d="m235.51,583.9c-8.21-96.71-13.1-186.54,16.92-223.19l.23-.28,50.53,20.21.08.18c.17.37,16.97,37.33,13.05,62.19l12.46,57.33,40.64,68.04c1.27,2.13.58,4.9-1.56,6.17-.16.1-.32.18-.49.26l-17.66,7.77c-2.06.9-4.47.14-5.65-1.77l-44.2-72.08-24.97-55.29c-.34-.76-1.23-1.09-1.99-.75-.48.22-.82.68-.87,1.21l-13.84,130.1c-.24,2.29-2.17,4.03-4.47,4.02h-13.73c-2.33-.01-4.28-1.8-4.49-4.12Z"/>
    <path class="cls-4" d="m252.61,361.47l-.24-.12-.04-.26c-1.89-13.21.35-27.89,6.64-43.62,6.41-15.92,23.51-24.74,40.2-20.74h0c9.4,2.32,17.41,8.47,22.06,16.96,4.59,8.41,5.46,18.35,2.37,27.42-7.93,23.2-18.23,44.91-18.33,45.12l-.22.45-52.45-25.22Z"/>
    <path class="cls-6" d="m197.48,328.57c4.77-3.77,11.69-2.95,15.45,1.82.26.33.5.67.72,1.02.26.42.48.85.68,1.3l47.95,9.69,12.77-30c2.04-4.79,7.58-7.02,12.37-4.98s7.02,7.58,4.98,12.37c-.02.05-.04.1-.07.15l-18.71,41.83-.05.09c-2.23,3.05-6.19,4.27-9.75,3.01l-52.85-18.94c-.28.22-.58.43-.89.62-5.17,3.2-11.95,1.61-15.15-3.56-.22-.35-.42-.72-.6-1.1-.13-.28-.26-.57-.36-.86-1.65-4.47-.24-9.5,3.5-12.47Z"/>
    <path class="cls-1" d="m384.33,289.2c-2.37-4.19-5.81-8.03-10.37-9.58-5.88-2-12.26.13-18.31,1.55-4.66,1.1-9.53,1.77-14.23.84-4.7-.92-9.23-3.66-11.37-7.94-3.15-6.3-.5-13.82-.69-20.86-.36-13.99-11.99-25.04-25.98-24.68-2.01.05-4.01.34-5.95.87-5.79-1.67-11.04-1.83-14.62,2.63-9.39,0-17,7.61-17,17h16.26c-.77,4.14.11,8.43,2.45,11.93,2.87,4.22,7.86,7.27,8.82,12.27.93,4.85-2.37,9.46-5.83,12.99-3.46,3.53-7.48,7.02-8.56,11.85-.66,3.66.09,7.44,2.1,10.56,2.01,3.09,4.5,5.84,7.39,8.14,12.99,11.12,28.42,19.02,45.04,23.04,11.7,2.82,24.51,3.55,35.37-1.64,17.51-8.35,24.93-29.32,16.58-46.83-.35-.73-.72-1.44-1.11-2.14Z"/>
    <rect class="cls-4" x="37.49" y="24" width="205.74" height="63" rx="24.75" ry="24.75"/>
  </g>
</svg>