<?xml version="1.0" encoding="UTF-8"?>
<svg id="Camada_2" data-name="Camada 2" xmlns="http://www.w3.org/2000/svg" xmlns:xlink="http://www.w3.org/1999/xlink" viewBox="0 0 801.67 202.54">
  <defs>
    <style>
      .cls-1 {
        clip-path: url(#clippath-3);
      }

      .cls-1, .cls-2, .cls-3, .cls-4, .cls-5 {
        fill: none;
      }

      .cls-1, .cls-2, .cls-3, .cls-5 {
        clip-rule: evenodd;
      }

      .cls-6 {
        fill: url(#Gradiente_sem_nome_2-4);
      }

      .cls-7 {
        fill: url(#Gradiente_sem_nome_103);
      }

      .cls-2 {
        clip-path: url(#clippath);
      }

      .cls-8 {
        clip-path: url(#clippath-2);
      }

      .cls-9 {
        fill: url(#Gradiente_sem_nome_95-3);
      }

      .cls-10 {
        fill: url(#Gradiente_sem_nome_99);
      }

      .cls-11 {
        fill: url(#Gradiente_sem_nome_95-4);
      }

      .cls-12 {
        fill: url(#Gradiente_sem_nome_95-2);
      }

      .cls-13 {
        clip-path: url(#clippath-7);
      }

      .cls-14 {
        clip-path: url(#clippath-1);
      }

      .cls-15 {
        clip-path: url(#clippath-4);
      }

      .cls-16 {
        fill: url(#Gradiente_sem_nome_95-5);
      }

      .cls-17 {
        fill: url(#Gradiente_sem_nome_2);
      }

      .cls-18 {
        fill: url(#Gradiente_sem_nome_2-2);
      }

      .cls-19 {
        fill: #00cfff;
      }

      .cls-20 {
        fill: url(#Gradiente_sem_nome_95);
      }

      .cls-21 {
        clip-path: url(#clippath-8);
      }

      .cls-22 {
        fill: url(#Gradiente_sem_nome_103-2);
      }

      .cls-23 {
        fill: #efb400;
      }

      .cls-5 {
        clip-path: url(#clippath-6);
      }

      .cls-24 {
        clip-path: url(#clippath-5);
      }

      .cls-25 {
        fill: url(#Gradiente_sem_nome_2-3);
      }
    </style>
    <clipPath id="clippath">
      <polygon class="cls-3" points="402.85 93.64 483.91 93.64 483.91 12.58 402.85 12.58 402.85 93.64 402.85 93.64"/>
    </clipPath>
    <clipPath id="clippath-1">
      <polygon class="cls-2" points="402.85 12.58 483.91 12.58 483.91 93.64 402.85 93.64 402.85 12.58 402.85 12.58"/>
    </clipPath>
    <clipPath id="clippath-2">
      <polygon class="cls-4" points="402.85 93.64 483.91 93.64 483.91 12.58 402.85 12.58 402.85 93.64 402.85 93.64"/>
    </clipPath>
    <linearGradient id="Gradiente_sem_nome_103" data-name="Gradiente sem nome 103" x1="428.37" y1="19.06" x2="459.1" y2="49.79" gradientUnits="userSpaceOnUse">
      <stop offset="0" stop-color="#e6e6e6"/>
      <stop offset=".68" stop-color="#7b7b7b"/>
      <stop offset="1" stop-color="#4d4d4d"/>
    </linearGradient>
    <linearGradient id="Gradiente_sem_nome_103-2" data-name="Gradiente sem nome 103" x1="420.86" y1="39.63" x2="466.61" y2="85.38" xlink:href="#Gradiente_sem_nome_103"/>
    <linearGradient id="Gradiente_sem_nome_99" data-name="Gradiente sem nome 99" x1="38.43" y1="46.73" x2="106.21" y2="99.58" gradientUnits="userSpaceOnUse">
      <stop offset="0" stop-color="#ccc"/>
      <stop offset=".08" stop-color="#c6c6c6"/>
      <stop offset=".19" stop-color="#b5b6b5"/>
      <stop offset=".31" stop-color="#999b9a"/>
      <stop offset=".44" stop-color="#737674"/>
      <stop offset=".59" stop-color="#414743"/>
      <stop offset=".73" stop-color="#050d08"/>
      <stop offset=".74" stop-color="#020a05"/>
    </linearGradient>
    <linearGradient id="Gradiente_sem_nome_2" data-name="Gradiente sem nome 2" x1="106.3" y1="60.34" x2="216.78" y2="176.18" gradientUnits="userSpaceOnUse">
      <stop offset="0" stop-color="#0f5222"/>
      <stop offset=".48" stop-color="#0e5021"/>
      <stop offset=".65" stop-color="#0d491e"/>
      <stop offset=".78" stop-color="#0b3d19"/>
      <stop offset=".88" stop-color="#082c12"/>
      <stop offset=".96" stop-color="#04160a"/>
      <stop offset="1" stop-color="#020a05"/>
    </linearGradient>
    <linearGradient id="Gradiente_sem_nome_2-2" data-name="Gradiente sem nome 2" x1="267.7" y1="86.27" x2="333.15" y2="164.64" xlink:href="#Gradiente_sem_nome_2"/>
    <linearGradient id="Gradiente_sem_nome_2-3" data-name="Gradiente sem nome 2" x1="402.33" y1="49.84" x2="531.29" y2="205.81" xlink:href="#Gradiente_sem_nome_2"/>
    <linearGradient id="Gradiente_sem_nome_2-4" data-name="Gradiente sem nome 2" x1="605.66" y1="60.28" x2="720.92" y2="171.38" xlink:href="#Gradiente_sem_nome_2"/>
    <clipPath id="clippath-3">
      <polygon class="cls-3" points="692.71 202.54 801.67 202.54 801.67 93.58 692.71 93.58 692.71 202.54 692.71 202.54"/>
    </clipPath>
    <clipPath id="clippath-4">
      <polygon class="cls-1" points="692.71 93.58 801.67 93.58 801.67 202.54 692.71 202.54 692.71 93.58 692.71 93.58"/>
    </clipPath>
    <clipPath id="clippath-5">
      <polygon class="cls-4" points="692.71 202.54 801.67 202.54 801.67 93.58 692.71 93.58 692.71 202.54 692.71 202.54"/>
    </clipPath>
    <linearGradient id="Gradiente_sem_nome_95" data-name="Gradiente sem nome 95" x1="718.68" y1="120.11" x2="780.49" y2="165.19" gradientUnits="userSpaceOnUse">
      <stop offset=".29" stop-color="#ccc"/>
      <stop offset=".32" stop-color="#c5c5c5"/>
      <stop offset=".64" stop-color="#848484"/>
      <stop offset=".88" stop-color="#5c5c5c"/>
      <stop offset="1" stop-color="#4d4d4d"/>
    </linearGradient>
    <clipPath id="clippath-6">
      <polygon class="cls-3" points="248.77 197.58 365.55 197.58 365.55 80.58 248.77 80.58 248.77 197.58 248.77 197.58"/>
    </clipPath>
    <clipPath id="clippath-7">
      <polygon class="cls-5" points="248.77 80.58 365.55 80.58 365.55 197.58 248.77 197.58 248.77 80.58 248.77 80.58"/>
    </clipPath>
    <clipPath id="clippath-8">
      <polygon class="cls-4" points="248.77 197.58 365.55 197.58 365.55 80.58 248.77 80.58 248.77 197.58 248.77 197.58"/>
    </clipPath>
    <linearGradient id="Gradiente_sem_nome_95-2" data-name="Gradiente sem nome 95" x1="280.56" y1="153.34" x2="328.17" y2="180.82" xlink:href="#Gradiente_sem_nome_95"/>
    <linearGradient id="Gradiente_sem_nome_95-3" data-name="Gradiente sem nome 95" x1="273.14" y1="106.97" x2="301.22" y2="123.18" xlink:href="#Gradiente_sem_nome_95"/>
    <linearGradient id="Gradiente_sem_nome_95-4" data-name="Gradiente sem nome 95" x1="314.37" y1="109.22" x2="337.21" y2="122.41" xlink:href="#Gradiente_sem_nome_95"/>
    <linearGradient id="Gradiente_sem_nome_95-5" data-name="Gradiente sem nome 95" x1="289.11" y1="115.07" x2="335.19" y2="141.67" xlink:href="#Gradiente_sem_nome_95"/>
  </defs>
  <g id="Camada_1-2" data-name="Camada 1">
    <g>
      <g class="cls-14">
        <g class="cls-8">
          <path class="cls-7" d="m468.77,30.11h-14.18v-4.17c0-3.25-2.59-5.84-5.84-5.84h-10.01c-3.25,0-5.84,2.59-5.84,5.84v4.17h-14.18c-1.84,0-3.34,1.5-3.34,3.34v3.34h56.74v-3.34c0-1.84-1.5-3.34-3.34-3.34h0Zm-30.87-4.17c0-.5.33-.83.83-.83h10.01c.5,0,.83.33.83.83v4.17h-11.68v-4.17h0Z"/>
          <path class="cls-22" d="m420.37,83.51c0,1.84,1.5,3.34,3.34,3.34h40.05c1.84,0,3.34-1.5,3.34-3.34v-43.39h-46.73v43.39h0Zm34.21-38.38h5.01v36.71h-5.01v-36.71h0Zm-13.35,0h5.01v36.71h-5.01v-36.71h0Zm-13.35,0h5.01v36.71h-5.01v-36.71h0Z"/>
        </g>
      </g>
      <g>
        <path class="cls-10" d="m22.18,79.36v7.2h19.69v-7.2c0-6.11,4.96-11.07,11.07-11.08h55.19v-19.7h-55.19c-16.98.02-30.74,13.79-30.76,30.78h0Z"/>
        <path class="cls-19" d="m18.02,101.88c0,2.49-2.02,4.51-4.51,4.51s-4.51-2.02-4.51-4.51c0-2.49,2.02-4.51,4.51-4.51s4.51,2.02,4.51,4.51h0Z"/>
        <path class="cls-19" d="m10.81,119c0,2.99-2.42,5.41-5.41,5.41s-5.41-2.42-5.41-5.41,2.42-5.41,5.41-5.41,5.41,2.42,5.41,5.41h0Z"/>
        <path class="cls-19" d="m62.18,114.49c0,2.49-2.02,4.51-4.51,4.51s-4.51-2.02-4.51-4.51c0-2.49,2.02-4.51,4.51-4.51s4.51,2.02,4.51,4.51h0Z"/>
        <path class="cls-19" d="m42.65,114.32c0-6.37-9.95-20.56-9.95-20.56,0,0-9.95,14.15-9.95,20.56,0,.08,0,.16,0,.24.07,5.5,4.58,9.9,10.07,9.83,5.5-.07,9.9-4.58,9.83-10.07h0Z"/>
      </g>
      <g>
        <path class="cls-17" d="m197.36,65.8c-6.27-3.68-11.98-6.68-17.14-8.99-5.16-2.3-10.78-4.38-16.87-6.22-6.08-1.84-12.07-2.76-17.97-2.76-4.61,0-8.39.73-11.34,2.19-2.95,1.46-4.42,3.93-4.42,7.4,0,3.29,1.47,5.94,4.42,7.94,2.95,2.01,7.14,3.84,12.58,5.48,5.43,1.64,11.93,3.65,19.49,6.03,12.16,3.65,22.67,7.85,31.52,12.6,8.85,4.75,15.66,10.83,20.46,18.22,4.79,7.4,7.19,17.21,7.19,29.45s-2.12,21.51-6.36,29.45c-4.24,7.94-9.95,14.29-17.14,19.04-7.19,4.75-15.21,8.18-24.05,10.28-8.85,2.1-17.88,3.15-27.1,3.15s-19.22-.97-29.44-2.9c-10.23-1.94-20.14-4.6-29.72-8.02-9.59-3.41-18.34-7.42-26.27-12.03l23.22-47.28c7.37,4.42,14.1,8.02,20.18,10.78,6.08,2.76,12.86,5.25,20.32,7.46,7.46,2.21,14.97,3.32,22.53,3.32,5.9,0,10-.75,12.3-2.24,2.3-1.49,3.46-3.47,3.46-5.94,0-3.84-2.03-6.82-6.08-8.93-4.06-2.1-9.36-4.12-15.9-6.04-6.54-1.92-13.78-4.16-21.7-6.73-11.43-3.85-20.83-8.19-28.2-13.04-7.37-4.85-12.81-10.61-16.31-17.3-3.5-6.68-5.25-14.78-5.25-24.3,0-14.46,3.41-26.54,10.23-36.24,6.82-9.7,15.8-17.07,26.96-22.11,11.15-5.03,23.18-7.55,36.08-7.55,9.58,0,18.84,1.15,27.79,3.46,8.94,2.31,17.32,5.11,25.16,8.43,7.83,3.32,14.7,6.45,20.6,9.4l-23.22,44.51Z"/>
        <path class="cls-18" d="m251.82,197.68V1.38h53.91v196.3h-53.91Z"/>
        <path class="cls-25" d="m490.69,197.68v-103.4l-32.9,72.71h-28.75l-32.9-72.71v103.4h-53.91V1.38h58.89l42.3,92.34L485.99,1.38h58.61v196.3h-53.91Z"/>
        <path class="cls-6" d="m699.99,65.8c-6.27-3.68-11.98-6.68-17.14-8.99-5.16-2.3-10.78-4.38-16.86-6.22-6.08-1.84-12.07-2.76-17.97-2.76-4.61,0-8.39.73-11.34,2.19-2.95,1.46-4.42,3.93-4.42,7.4,0,3.29,1.47,5.94,4.42,7.94,2.95,2.01,7.14,3.84,12.58,5.48,5.43,1.64,11.93,3.65,19.49,6.03,12.16,3.65,22.67,7.85,31.52,12.6,8.85,4.75,15.66,10.83,20.46,18.22,4.79,7.4,7.19,17.21,7.19,29.45s-2.12,21.51-6.36,29.45c-4.24,7.94-9.95,14.29-17.14,19.04-7.19,4.75-15.21,8.18-24.05,10.28-8.85,2.1-17.88,3.15-27.1,3.15s-19.22-.97-29.44-2.9c-10.23-1.94-20.14-4.6-29.72-8.02-9.59-3.41-18.34-7.42-26.27-12.03l23.22-47.28c7.37,4.42,14.1,8.02,20.18,10.78,6.08,2.76,12.86,5.25,20.32,7.46,7.47,2.21,14.97,3.32,22.53,3.32,5.9,0,10-.75,12.3-2.24,2.3-1.49,3.46-3.47,3.46-5.94,0-3.84-2.03-6.82-6.08-8.93-4.06-2.1-9.36-4.12-15.9-6.04-6.54-1.92-13.78-4.16-21.7-6.73-11.43-3.85-20.83-8.19-28.2-13.04-7.37-4.85-12.81-10.61-16.31-17.3-3.5-6.68-5.25-14.78-5.25-24.3,0-14.46,3.41-26.54,10.23-36.24,6.82-9.7,15.8-17.07,26.96-22.11,11.15-5.03,23.18-7.55,36.08-7.55,9.58,0,18.84,1.15,27.79,3.46,8.94,2.31,17.32,5.11,25.16,8.43,7.83,3.32,14.7,6.45,20.6,9.4l-23.22,44.51Z"/>
      </g>
      <g class="cls-15">
        <g class="cls-24">
          <path class="cls-20" d="m785.92,143.5c.04-5.85-4.67-10.62-10.52-10.65-.61,0-1.21.04-1.81.15v-.15c0-7.43-6.03-13.46-13.46-13.46-1.42,0-2.84.23-4.19.67-4.24-7.91-14.09-10.89-22-6.65-5.19,2.78-8.47,8.15-8.57,14.03-7.31-1.36-14.34,3.46-15.7,10.76-1.36,7.31,3.46,14.34,10.76,15.7.52.1,1.04.16,1.57.2v.06h53.84c5.67-.29,10.11-4.98,10.09-10.66h0Z"/>
          <polygon class="cls-23" points="756.75 167.61 747.19 167.61 750.78 158.64 742.33 158.64 738.81 173.22 745.99 173.22 741.61 185.56 756.75 167.61 756.75 167.61 756.75 167.61"/>
          <path class="cls-19" d="m773.35,169.8c0,3.1-2.51,5.61-5.61,5.61s-5.61-2.51-5.61-5.61,5.61-11.22,5.61-11.22c0,0,5.61,8.12,5.61,11.22h0Z"/>
          <path class="cls-19" d="m732.98,169.8c0,3.1-2.51,5.61-5.61,5.61s-5.61-2.51-5.61-5.61,5.61-11.22,5.61-11.22c0,0,5.61,8.12,5.61,11.22h0Z"/>
        </g>
      </g>
      <g class="cls-13">
        <g class="cls-21">
          <path class="cls-12" d="m331.71,148.03h-48.08c0,8.43,5.39,15.77,13.22,19.34v30.21h21.64v-30.21c7.84-3.58,13.22-10.91,13.22-19.34h0Z"/>
          <path class="cls-9" d="m281.33,104.67l2.3,25.29c.44,3.46,2.27,8.05,8.81,8.43-3.51-5.81-5.31-12.48-5.2-19.27,0-8.62,2.69-16.38,6.94-21.68h-14.15c-1.33,0-2.4,1.08-2.4,2.41v2.41c0,1.33,1.08,2.41,2.4,2.41h1.31Z"/>
          <path class="cls-11" d="m335.32,97.44h-14.15c4.24,5.3,6.94,13.06,6.94,21.68.11,6.79-1.7,13.46-5.2,19.27,6.54-.35,8.41-4.94,8.81-8.43l2.3-25.29h1.31c1.33,0,2.4-1.08,2.4-2.41v-2.41c0-1.33-1.08-2.41-2.4-2.41h0Z"/>
          <path class="cls-16" d="m332.91,138.39h-15.9c3.81-4.4,6.29-11.38,6.29-19.27,0-13.25-7.01-24.09-15.63-24.09s-15.63,10.84-15.63,24.09c0,7.89,2.48,14.87,6.29,19.27h-15.9c-1.33,0-2.4,1.08-2.4,2.41s1.08,2.41,2.4,2.41h50.48c1.33,0,2.4-1.08,2.4-2.41s-1.08-2.41-2.4-2.41h0Z"/>
        </g>
      </g>
    </g>
  </g>
</svg>