<?xml version="1.0" encoding="UTF-8"?>
<svg id="Camada_2" data-name="Camada 2" xmlns="http://www.w3.org/2000/svg" viewBox="0 0 721.11 582.53">
  <defs>
    <style>
      .cls-1 {
        fill: #fff;
      }

      .cls-2 {
        fill: #3f3d56;
      }

      .cls-3 {
        fill: #e6e6e6;
      }

      .cls-4 {
        fill: #ccc;
      }

      .cls-5 {
        fill: #ff6584;
      }

      .cls-6 {
        fill: #f92626;
      }

      .cls-7 {
        fill: #f2f2f2;
      }
    </style>
  </defs>
  <g id="Camada_1-2" data-name="Camada 1">
    <path class="cls-4" d="m125.32,395.72h-2.29c-.63,0-1.15-.51-1.15-1.15v-2.29c0-.63.51-1.15,1.15-1.15h2.29c.63,0,1.15.51,1.15,1.15v2.29c0,.63-.51,1.15-1.15,1.15Z"/>
    <path class="cls-4" d="m124.21,393.19s-.09,0-.13-.01c-.42-.07-.7-.47-.62-.88,0,0,0,0,0,0l7.56-44c.07-.42.47-.69.89-.62.41.07.69.46.62.88l-7.56,44c-.06.37-.38.63-.75.64Z"/>
    <path class="cls-4" d="m124.21,393.19c-.37,0-.69-.27-.75-.64l-7.56-44c-.07-.42.21-.81.63-.88.41-.07.8.21.88.62l7.56,44c.07.42-.21.81-.62.88,0,0,0,0,0,0-.04,0-.09.01-.13.01Z"/>
    <path class="cls-5" d="m140.49,340.77c.74-5.22-2.05-9.93-6.23-10.52s-8.16,3.16-8.9,8.39c-.62,4.4,1.27,8.43,4.38,9.94l-.18,1.26,3.78.53.18-1.26c3.41-.59,6.34-3.94,6.96-8.34Z"/>
    <path class="cls-4" d="m122.93,338.39c-.9-5.19-5.01-8.82-9.16-8.1s-6.79,5.52-5.89,10.72c.76,4.38,3.8,7.63,7.23,8.11l.22,1.25,3.76-.66-.22-1.25c3.06-1.61,4.82-5.7,4.06-10.08Z"/>
    <path class="cls-4" d="m124.17,392.28c-.42,0-.76-.34-.76-.76v-45.23c0-.42.34-.77.76-.77s.77.34.77.76c0,0,0,0,0,.01v45.23c0,.42-.34.76-.76.76Z"/>
    <path class="cls-6" d="m131.34,337.6c0-5.27-3.42-9.55-7.64-9.55s-7.64,4.27-7.64,9.55c0,4.45,2.44,8.17,5.73,9.23v1.27h3.82v-1.27c3.29-1.06,5.73-4.79,5.73-9.23Z"/>
    <path class="cls-3" d="m480.19,582.53h-.15s-239.12-22.23-239.12-22.23l-217.44,20.2c-11.82,1.1-22.3-7.6-23.39-19.42-.06-.66-.09-1.32-.09-1.99V41.97c-.05-11.12,8.43-20.42,19.51-21.41L240.92,0h.15s239.12,22.23,239.12,22.23L697.63,2.03c11.82-1.1,22.3,7.6,23.39,19.42.06.66.09,1.32.09,1.99v517.13c.05,11.12-8.43,20.42-19.51,21.41l-221.41,20.57Zm-239.27-25.55h.15s239.12,22.23,239.12,22.23l221.11-20.54c9.37-.83,16.55-8.7,16.51-18.11V23.43c0-10.05-8.14-18.19-18.19-18.19-.56,0-1.12.03-1.68.08l-217.74,20.23h-.15S240.92,3.32,240.92,3.32L19.82,23.86l-.15-1.65.15,1.65c-9.37.83-16.55,8.7-16.51,18.11v517.13c0,10.05,8.14,18.19,18.19,18.19.56,0,1.12-.03,1.68-.08l217.74-20.23Z"/>
    <path class="cls-2" d="m688.97,132.35c0-14.71-11.93-49.6-26.64-49.6s-26.64,34.89-26.64,49.6c0,14.72,11.94,26.64,26.66,26.63,14.7,0,26.62-11.93,26.63-26.63Z"/>
    <path class="cls-4" d="m662.33,191.35c-.17,0-.3-.14-.3-.3v-62.2c0-.17.14-.3.31-.3.17,0,.3.14.3.3v62.2c0,.17-.14.3-.3.3h0Z"/>
    <path class="cls-4" d="m662.33,140.47c-.09,0-.17-.04-.23-.11l-15.32-17.67c-.11-.13-.1-.32.03-.43.13-.11.32-.1.43.03l15.32,17.67c.11.13.1.32-.03.43-.06.05-.13.07-.2.07Z"/>
    <path class="cls-4" d="m662.33,150.67c-.17,0-.3-.14-.3-.3,0-.08.03-.16.09-.22l8.71-8.71c.12-.12.31-.12.43,0s.12.31,0,.43l-8.71,8.71c-.06.06-.13.09-.22.09Z"/>
    <path class="cls-7" d="m633.47,190.95c0-6.14,4.98-11.12,11.12-11.12s11.12,4.98,11.12,11.12"/>
    <path class="cls-4" d="m644.59,190.95c-.17,0-.3-.13-.3-.3v-5.86c0-.17.14-.3.3-.3.17,0,.3.13.3.3v5.86c0,.17-.13.3-.3.3Z"/>
    <path class="cls-4" d="m644.59,188.93c-.07,0-.14-.03-.2-.07l-3.61-3.1c-.13-.11-.14-.3-.03-.42.11-.13.3-.14.42-.03h0l3.61,3.1c.13.11.14.3.03.42-.06.07-.14.1-.23.1Z"/>
    <path class="cls-7" d="m667.74,190.95c0-6.14,4.98-11.12,11.12-11.12s11.12,4.98,11.12,11.12"/>
    <path class="cls-4" d="m678.86,190.95c-.17,0-.3-.13-.3-.3v-5.86c0-.17.13-.3.3-.3.17,0,.3.13.3.3h0v5.86c0,.17-.13.3-.3.3Z"/>
    <path class="cls-4" d="m678.86,188.93c-.07,0-.14-.03-.2-.07l-3.61-3.1c-.13-.11-.14-.3-.03-.42s.3-.14.42-.03l3.61,3.1c.13.11.14.3.03.42-.06.07-.14.1-.23.1h0Z"/>
    <path class="cls-7" d="m338.51,90.23c7.31-10.46,16.16-41.21,5.7-48.52s-36.29,11.58-43.6,22.04c-7.3,10.47-4.73,24.89,5.74,32.19,10.46,7.29,24.85,4.74,32.16-5.71h0Z"/>
    <path class="cls-4" d="m290.24,118.96c-.12-.08-.15-.25-.07-.37l30.91-44.24c.08-.12.25-.15.37-.07s.15.25.07.37h0l-30.91,44.24c-.08.12-.25.15-.37.07Z"/>
    <path class="cls-4" d="m315.53,82.77c-.06-.04-.1-.11-.11-.19l-2.12-20.19c-.02-.15.09-.28.24-.29.15-.02.28.09.29.24l2.12,20.19c.02.15-.09.28-.24.29-.06,0-.13,0-.18-.05h0Z"/>
    <path class="cls-4" d="m310.46,90.02c-.12-.08-.15-.25-.07-.37.04-.06.1-.1.17-.11l10.52-1.87c.14-.03.28.07.31.21.03.14-.07.28-.21.31,0,0,0,0,0,0l-10.52,1.87c-.07.01-.14,0-.2-.04Z"/>
    <path class="cls-7" d="m269.91,104.33c3.06-4.36,9.08-5.41,13.45-2.35,4.35,3.05,5.41,9.04,2.38,13.41"/>
    <path class="cls-4" d="m277.82,109.86c-.12-.08-.15-.25-.06-.36l2.91-4.17c.08-.12.25-.14.36-.06.12.08.14.24.06.36l-2.91,4.17c-.08.12-.25.15-.36.06Z"/>
    <path class="cls-4" d="m278.83,108.43c-.05-.04-.09-.09-.1-.15l-1.03-4c-.04-.14.05-.28.19-.32.14-.04.28.05.32.19l1.03,4c.04.14-.05.28-.19.32-.07.02-.15,0-.21-.04h0Z"/>
    <path class="cls-7" d="m294.29,121.36c3.04-4.38,9.06-5.46,13.44-2.41,4.38,3.04,5.46,9.06,2.41,13.44,0,.01-.02.02-.02.03"/>
    <path class="cls-4" d="m302.2,126.89c-.12-.08-.15-.25-.06-.36l2.91-4.17c.08-.12.25-.15.36-.06.12.08.15.24.06.36l-2.91,4.17c-.08.12-.25.15-.36.06Z"/>
    <path class="cls-4" d="m303.2,125.46c-.05-.04-.09-.09-.1-.15l-1.03-4c-.04-.14.05-.28.19-.32.14-.04.28.05.32.19h0l1.03,4c.04.14-.05.28-.19.32-.07.02-.15,0-.21-.04h0Z"/>
    <path class="cls-6" d="m488.44,318.41c5.88,5.4,11.72,10.84,17.52,16.31-1.49.08-3.03.15-4.62.2-2.24.07-4.57.11-7.02.11-26.85,0-40.47-4.41-53.64-8.67-12.5-4.04-24.31-7.86-48.55-7.86s-36.06,3.82-48.55,7.86c-13.17,4.27-26.8,8.67-53.65,8.67s-40.47-4.41-53.65-8.67c-12.21-3.95-23.76-7.69-46.9-7.86-.55,0-1.09,0-1.65,0v-16.54c.55,0,1.11,0,1.65,0,25.76.17,39.09,4.49,51.99,8.66,12.5,4.05,24.31,7.87,48.55,7.87s36.05-3.82,48.55-7.87c13.17-4.26,26.79-8.67,53.65-8.67s40.47,4.41,53.64,8.67c10.44,3.38,20.41,6.61,37.54,7.57,1.65.1,3.35.17,5.13.22Z"/>
    <path class="cls-6" d="m698.73,318.49v16.54c-26.86,0-40.47-4.41-53.65-8.67-12.5-4.04-24.31-7.86-48.55-7.86s-36.06,3.82-48.56,7.86c-.68.22-1.36.44-2.05.66-1.17.38-2.36.76-3.57,1.13-4.56-4.47-9.14-8.91-13.74-13.3,1.28-.31,2.52-.64,3.75-.98,3.65-1.01,7.06-2.12,10.53-3.24,13.17-4.26,26.79-8.67,53.65-8.67s40.47,4.41,53.65,8.67c12.5,4.05,24.31,7.87,48.55,7.87Z"/>
    <path class="cls-2" d="m333.32,191.31c-46.29-33.71-94.99-65.68-144.74-95l-2.5-1.47v99.47h151.34l-4.11-2.99Zm-143.93-.31v-90.37c47.33,28,93.67,58.37,137.87,90.37h-137.87Zm378.18,204.73c-20.02-20.81-40.55-41.15-61.61-61.01-5.8-5.48-11.64-10.92-17.52-16.31-35.86-32.94-72.9-64.27-111.12-93.99l-.45-.35h-190.79v174.46h384.18l-2.7-2.8Zm-378.18-.5v-167.85h186.35c36.85,28.67,72.71,58.94,107.56,90.81,6.05,5.53,12.06,11.11,18.03,16.73,20.87,19.61,41.25,39.72,61.14,60.31H189.39Zm378.18.5c-20.02-20.81-40.55-41.15-61.61-61.01-5.8-5.48-11.64-10.92-17.52-16.31-35.86-32.94-72.9-64.27-111.12-93.99l-.45-.35h-190.79v174.46h384.18l-2.7-2.8Zm-378.18-.5v-167.85h186.35c36.85,28.67,72.71,58.94,107.56,90.81,6.05,5.53,12.06,11.11,18.03,16.73,20.87,19.61,41.25,39.72,61.14,60.31H189.39Zm143.93-203.92c-46.29-33.71-94.99-65.68-144.74-95l-2.5-1.47v99.47h151.34l-4.11-2.99Zm-143.93-.31v-90.37c47.33,28,93.67,58.37,137.87,90.37h-137.87Zm143.93.31c-46.29-33.71-94.99-65.68-144.74-95l-2.5-1.47v99.47h151.34l-4.11-2.99Zm-143.93-.31v-90.37c47.33,28,93.67,58.37,137.87,90.37h-137.87Zm378.18,204.73c-20.02-20.81-40.55-41.15-61.61-61.01-5.8-5.48-11.64-10.92-17.52-16.31-35.86-32.94-72.9-64.27-111.12-93.99l-.45-.35h-190.79v174.46h384.18l-2.7-2.8Zm-378.18-.5v-167.85h186.35c36.85,28.67,72.71,58.94,107.56,90.81,6.05,5.53,12.06,11.11,18.03,16.73,20.87,19.61,41.25,39.72,61.14,60.31H189.39Zm-167.01,33.07v3.31h130.62v47.96H22.39v3.31h133.93v-54.57H22.39Zm163.7,84.34v33.51l3.31-.31v-29.9h509.33v-3.31H186.09Zm512.64-81.03v-3.31H186.09v54.57h512.64v-3.31H189.39v-47.96h509.33Zm-308.87-240.61c-63.45-48.95-130.46-93.1-200.47-132.09V25.42l-3.31.31v33.75l2.55,2.8c69.72,38.88,136.46,82.9,199.66,131.68l.45.35h309.99v-3.31h-308.87Zm-236.85,0H22.39v3.31h133.93V28.49l-3.31.31v162.2Zm545.71,33.07h-272.52l3.56,2.93c33.55,27.61,66.5,56.89,98.83,87.84,4.6,4.4,9.18,8.83,13.74,13.3,22.72,22.2,45,45.13,66.83,68.78l2.73,1.61h86.82v-3.31h-86.61c-21.6-23.42-43.66-46.15-66.2-68.21-4.51-4.42-9.03-8.8-13.57-13.15-31.64-30.35-63.95-59.18-96.93-86.48h263.31v-3.31ZM22.39,512.64v3.31h130.62v33.27l3.31-.31v-36.27H22.39Zm0-288.57v3.31h130.62v167.85H22.39v3.31h133.93v-174.46H22.39Zm310.93-32.76c-46.29-33.71-94.99-65.68-144.74-95l-2.5-1.47v99.47h151.34l-4.11-2.99Zm-143.93-.31v-90.37c47.33,28,93.67,58.37,137.87,90.37h-137.87Zm378.18,204.73c-20.02-20.81-40.55-41.15-61.61-61.01-5.8-5.48-11.64-10.92-17.52-16.31-35.86-32.94-72.9-64.27-111.12-93.99l-.45-.35h-190.79v174.46h384.18l-2.7-2.8Zm-378.18-.5v-167.85h186.35c36.85,28.67,72.71,58.94,107.56,90.81,6.05,5.53,12.06,11.11,18.03,16.73,20.87,19.61,41.25,39.72,61.14,60.31H189.39Zm143.93-203.92c-46.29-33.71-94.99-65.68-144.74-95l-2.5-1.47v99.47h151.34l-4.11-2.99Zm-143.93-.31v-90.37c47.33,28,93.67,58.37,137.87,90.37h-137.87Zm378.18,204.73c-20.02-20.81-40.55-41.15-61.61-61.01-5.8-5.48-11.64-10.92-17.52-16.31-35.86-32.94-72.9-64.27-111.12-93.99l-.45-.35h-190.79v174.46h384.18l-2.7-2.8Zm-378.18-.5v-167.85h186.35c36.85,28.67,72.71,58.94,107.56,90.81,6.05,5.53,12.06,11.11,18.03,16.73,20.87,19.61,41.25,39.72,61.14,60.31H189.39Z"/>
    <path class="cls-7" d="m419.82,303.78c0-14.56,11.8-49.12,26.37-49.12s26.37,34.55,26.37,49.12c.01,14.56-11.78,26.38-26.35,26.39s-26.38-11.78-26.39-26.35v-.04h0Z"/>
    <path class="cls-2" d="m446.19,367.93c-.12,0-.22-.1-.22-.22v-90.9c0-.12.1-.22.22-.21.12,0,.21.1.21.21v90.9c0,.12-.1.22-.22.22h0Z"/>
    <path class="cls-2" d="m446.19,294.36c-.06,0-.11-.02-.15-.06l-10.44-10.44c-.08-.08-.08-.22,0-.31.08-.08.22-.08.31,0l10.44,10.44c.08.08.08.22,0,.31-.04.04-.1.06-.15.06Z"/>
    <path class="cls-2" d="m446.19,312.42c-.12,0-.22-.1-.22-.22,0-.06.02-.11.06-.15l17.48-17.48c.08-.08.22-.08.31,0,.08.08.08.22,0,.31h0l-17.48,17.48s-.1.06-.15.06Z"/>
    <path class="cls-6" d="m567.66,229.37c0-14.56,11.8-49.12,26.37-49.12s26.37,34.55,26.37,49.12c-.02,14.56-11.84,26.35-26.4,26.34-14.54-.02-26.32-11.8-26.34-26.34h0Z"/>
    <path class="cls-2" d="m594.03,293.51c-.12,0-.22-.1-.22-.22v-90.9c0-.12.1-.22.22-.21.12,0,.21.1.21.21v90.9c0,.12-.1.22-.22.22h0Z"/>
    <path class="cls-2" d="m594.03,219.94c-.06,0-.11-.02-.15-.06l-10.44-10.44c-.08-.08-.08-.22,0-.31.08-.08.22-.08.31,0l10.44,10.44c.08.08.08.22,0,.31-.04.04-.1.06-.15.06Z"/>
    <path class="cls-2" d="m594.03,238.01c-.12,0-.22-.1-.22-.22,0-.06.02-.11.06-.15l17.48-17.48c.09-.08.22-.08.31,0,.08.08.08.22,0,.3l-17.48,17.48s-.1.06-.15.06Z"/>
    <path class="cls-6" d="m243.95,236.81c0-14.56,11.8-49.12,26.37-49.12s26.37,34.55,26.37,49.12-11.8,26.37-26.37,26.37-26.37-11.8-26.37-26.37Z"/>
    <path class="cls-2" d="m270.32,300.95c-.12,0-.22-.1-.22-.22v-90.9c0-.12.1-.22.22-.22s.22.1.22.22v90.9c0,.12-.1.22-.22.22h0Z"/>
    <path class="cls-2" d="m270.32,227.38c-.06,0-.11-.02-.15-.06l-10.44-10.44c-.08-.08-.08-.22,0-.31s.22-.08.31,0h0l10.44,10.44c.08.08.08.22,0,.31-.04.04-.1.06-.15.06Z"/>
    <path class="cls-2" d="m270.32,245.45c-.12,0-.22-.1-.22-.22,0-.06.02-.11.06-.15l17.48-17.48c.09-.08.22-.08.31,0,.08.08.08.22,0,.3l-17.48,17.48s-.1.06-.15.06Z"/>
    <path class="cls-4" d="m487.21,164.16c-41.82,0-75.72-33.9-75.72-75.72S445.39,12.73,487.21,12.73s75.72,33.9,75.72,75.72h0c-.05,41.8-33.92,75.67-75.72,75.72Zm0-150.42c-41.26,0-74.7,33.44-74.7,74.7s33.44,74.7,74.7,74.7,74.7-33.44,74.7-74.7h0c-.05-41.24-33.46-74.65-74.7-74.7h0Z"/>
    <path class="cls-4" d="m487.21,82.85c-.28,0-.51-.23-.51-.51V13.23c0-.28.23-.51.51-.51s.51.23.51.51v69.11c0,.28-.23.51-.51.51Z"/>
    <path class="cls-4" d="m562.42,88.95h-69.11c-.28,0-.51-.23-.51-.51s.23-.51.51-.51h69.11c.28,0,.51.23.51.51s-.23.51-.51.51h0Z"/>
    <path class="cls-4" d="m481.11,88.95h-69.08c-.28,0-.51-.23-.51-.51s.23-.51.51-.51h69.08c.28,0,.51.23.51.51s-.23.51-.51.51Z"/>
    <path class="cls-4" d="m487.21,164.16c-.28,0-.51-.23-.51-.51v-69.11c0-.28.23-.51.51-.51s.51.23.51.51v69.11c0,.28-.23.51-.51.51Z"/>
    <path class="cls-4" d="m491.69,84.82c-.28,0-.51-.23-.51-.51,0-.13.05-.26.15-.36l48.65-48.65c.2-.2.52-.2.72,0,.2.2.2.52,0,.72l-48.65,48.65c-.1.1-.22.15-.36.15Z"/>
    <path class="cls-4" d="m482.73,84.82c-.13,0-.26-.05-.36-.15l-48.65-48.65c-.2-.2-.2-.52,0-.72.2-.2.52-.2.72,0l48.65,48.65c.2.2.2.52,0,.72-.1.1-.22.15-.36.15h0Z"/>
    <path class="cls-4" d="m540.35,141.74c-.13,0-.26-.05-.36-.15l-48.65-48.65c-.2-.2-.2-.52,0-.72.2-.2.52-.2.71,0l48.65,48.65c.2.2.2.52,0,.72-.1.1-.22.15-.36.15h0Z"/>
    <path class="cls-4" d="m434.08,141.74c-.28,0-.51-.23-.51-.51,0-.13.05-.26.15-.36l48.65-48.65c.2-.2.52-.2.72,0,.2.2.2.52,0,.72l-48.65,48.65c-.1.1-.22.15-.36.15Z"/>
    <path class="cls-4" d="m487.21,140.53c-28.77,0-52.09-23.32-52.09-52.09,0-28.77,23.32-52.09,52.09-52.09,28.77,0,52.09,23.32,52.09,52.09-.03,28.75-23.33,52.06-52.09,52.09Zm0-103.16c-28.21,0-51.07,22.87-51.07,51.07s22.87,51.07,51.07,51.07,51.07-22.87,51.07-51.07c-.03-28.19-22.88-51.04-51.07-51.07h0Z"/>
    <circle class="cls-2" cx="487.21" cy="88.44" r="6.1"/>
    <polygon class="cls-2" points="463.6 191.45 458.25 191.6 484.4 86.06 489.26 87.54 463.6 191.45"/>
    <polygon class="cls-2" points="510.82 191.45 516.18 191.6 490.03 86.06 485.17 87.54 510.82 191.45"/>
    <rect class="cls-4" x="478.57" y="28.48" width="16.77" height="9.15"/>
    <rect class="cls-1" x="479.59" y="30.51" width="6.61" height="7.11"/>
    <rect class="cls-1" x="487.72" y="30.51" width="6.61" height="7.11"/>
    <path class="cls-4" d="m486.96,47.54c-5.33,0-9.65-4.33-9.66-9.66v-.25c0-1.26,1.02-2.29,2.29-2.29h14.74c1.26,0,2.29,1.02,2.29,2.29v.25c0,5.33-4.33,9.65-9.66,9.66Z"/>
    <path class="cls-6" d="m494.71,30.77h-15.51c-.7,0-1.27-.57-1.27-1.27,0-.2.05-.39.13-.57l3.05-6.1c.21-.43.65-.7,1.14-.7h9.42c.48,0,.92.27,1.14.7l3.05,6.1c.31.63.06,1.39-.57,1.7-.18.09-.37.13-.57.13h0Z"/>
    <rect class="cls-4" x="523.8" y="48.81" width="16.77" height="9.15"/>
    <rect class="cls-1" x="524.82" y="50.84" width="6.61" height="7.11"/>
    <rect class="cls-1" x="532.95" y="50.84" width="6.61" height="7.11"/>
    <path class="cls-4" d="m532.18,67.86c-5.33,0-9.65-4.33-9.66-9.66v-.25c0-1.26,1.02-2.29,2.29-2.29h14.74c1.26,0,2.29,1.02,2.29,2.29v.25c0,5.33-4.33,9.65-9.66,9.66Z"/>
    <path class="cls-6" d="m527.48,42.96c-.29,0-.55.16-.68.42l-3.05,6.1c-.19.38-.04.83.34,1.02.11.05.22.08.34.08h15.51c.42,0,.76-.34.76-.76,0-.12-.03-.24-.08-.34l-3.05-6.1c-.13-.26-.39-.42-.68-.42h-9.42Z"/>
    <rect class="cls-4" x="541.59" y="94.54" width="16.77" height="9.15"/>
    <rect class="cls-1" x="542.6" y="96.57" width="6.61" height="7.11"/>
    <rect class="cls-1" x="550.73" y="96.57" width="6.61" height="7.11"/>
    <path class="cls-4" d="m549.97,113.6c-5.33,0-9.65-4.33-9.66-9.66v-.25c0-1.26,1.02-2.29,2.29-2.29h14.74c1.26,0,2.29,1.02,2.29,2.29v.25c0,5.33-4.33,9.65-9.66,9.66Z"/>
    <path class="cls-6" d="m557.73,96.83h-15.51c-.7,0-1.27-.57-1.27-1.27,0-.2.05-.39.13-.57l3.05-6.1c.21-.43.65-.7,1.14-.7h9.42c.48,0,.92.27,1.14.7l3.05,6.1c.31.63.06,1.39-.57,1.7-.18.09-.37.13-.57.13h0Z"/>
    <rect class="cls-4" x="522.78" y="137.23" width="16.77" height="9.15"/>
    <rect class="cls-1" x="523.8" y="139.26" width="6.61" height="7.11"/>
    <rect class="cls-1" x="531.93" y="139.26" width="6.61" height="7.11"/>
    <path class="cls-4" d="m531.17,156.28c-5.33,0-9.65-4.33-9.66-9.66v-.25c0-1.26,1.02-2.29,2.29-2.29h14.74c1.26,0,2.29,1.02,2.29,2.29v.25c0,5.33-4.33,9.65-9.66,9.66Z"/>
    <path class="cls-6" d="m538.93,139.52h-15.51c-.7,0-1.27-.57-1.27-1.27,0-.2.05-.39.13-.57l3.05-6.1c.21-.43.65-.7,1.14-.7h9.42c.48,0,.92.27,1.14.7l3.05,6.1c.31.63.06,1.39-.57,1.7-.18.09-.37.13-.57.13h0Z"/>
    <rect class="cls-4" x="433.85" y="48.81" width="16.77" height="9.15"/>
    <rect class="cls-1" x="443" y="50.84" width="6.61" height="7.11"/>
    <rect class="cls-1" x="434.87" y="50.84" width="6.61" height="7.11"/>
    <path class="cls-4" d="m442.24,67.86c-5.33,0-9.65-4.33-9.66-9.66v-.25c0-1.26,1.02-2.29,2.29-2.29h14.74c1.26,0,2.29,1.02,2.29,2.29v.25c0,5.33-4.33,9.65-9.66,9.66Z"/>
    <path class="cls-6" d="m450,51.09h-15.51c-.7,0-1.27-.57-1.27-1.27,0-.2.05-.39.13-.57l3.05-6.1c.21-.43.65-.7,1.14-.7h9.42c.48,0,.92.27,1.14.7l3.05,6.1c.31.63.06,1.39-.57,1.7-.18.09-.37.13-.57.13h0Z"/>
    <rect class="cls-4" x="416.07" y="94.54" width="16.77" height="9.15"/>
    <rect class="cls-1" x="425.21" y="96.57" width="6.61" height="7.11"/>
    <rect class="cls-1" x="417.08" y="96.57" width="6.61" height="7.11"/>
    <path class="cls-4" d="m424.45,113.6c-5.33,0-9.65-4.33-9.66-9.66v-.25c0-1.26,1.02-2.29,2.29-2.29h14.74c1.26,0,2.29,1.02,2.29,2.29v.25c0,5.33-4.33,9.65-9.66,9.66Z"/>
    <path class="cls-6" d="m432.21,96.83h-15.51c-.7,0-1.27-.57-1.27-1.27,0-.2.05-.39.13-.57l3.05-6.1c.21-.43.65-.7,1.14-.7h9.42c.48,0,.92.27,1.14.7l3.05,6.1c.31.63.06,1.39-.57,1.7-.18.09-.37.13-.57.13Z"/>
    <rect class="cls-4" x="434.87" y="137.23" width="16.77" height="9.15"/>
    <rect class="cls-1" x="444.02" y="139.26" width="6.61" height="7.11"/>
    <rect class="cls-1" x="435.89" y="139.26" width="6.61" height="7.11"/>
    <path class="cls-4" d="m443.25,156.28c-5.33,0-9.65-4.33-9.66-9.66v-.25c0-1.26,1.02-2.29,2.29-2.29h14.74c1.26,0,2.29,1.02,2.29,2.29v.25c0,5.33-4.33,9.65-9.66,9.66Z"/>
    <path class="cls-6" d="m451.01,139.52h-15.51c-.7,0-1.27-.57-1.27-1.27,0-.2.05-.39.13-.57l3.05-6.1c.21-.43.65-.7,1.14-.7h9.42c.48,0,.92.27,1.14.7l3.05,6.1c.31.63.06,1.39-.57,1.7-.18.09-.37.13-.57.13h0Z"/>
    <rect class="cls-4" x="478.57" y="156.54" width="16.77" height="9.15"/>
    <rect class="cls-1" x="479.59" y="158.57" width="6.61" height="7.11"/>
    <rect class="cls-1" x="487.72" y="158.57" width="6.61" height="7.11"/>
    <path class="cls-4" d="m479.59,163.91c-.98,0-1.78.8-1.78,1.78v.25c0,5.05,4.08,9.15,9.13,9.16,5.05,0,9.15-4.08,9.16-9.13v-.29c0-.98-.8-1.78-1.78-1.78h-14.74Z"/>
    <path class="cls-6" d="m482.25,150.69c-.29,0-.55.16-.68.42l-3.05,6.1c-.19.38-.04.83.34,1.02.11.05.22.08.34.08h15.51c.42,0,.76-.34.76-.76,0-.12-.03-.24-.08-.34l-3.05-6.1c-.13-.26-.39-.42-.68-.42h-9.42Z"/>
    <path class="cls-2" d="m263.23,283.36c.32,0,.57-.26.57-.58,0-.31-.26-.57-.57-.57h-5.45v-2.29h5.45c.32,0,.57-.26.57-.58,0-.31-.26-.57-.57-.57h-46.45c-.32,0-.57.26-.57.58,0,.31.26.57.57.57h5.45v2.29h-5.45c-.32,0-.57.26-.57.58,0,.31.26.57.57.57h5.45v2.29h-5.45c-.32,0-.57.26-.57.58,0,.31.26.57.57.57h5.45v2.29h-4.87c-.63,0-1.15.51-1.15,1.15s.51,1.15,1.15,1.15h4.64c-.03.09-.05.19-.05.29v8.03c0,.48.39.86.86.86s.86-.39.86-.86h0v-8.03c0-.1-.02-.19-.05-.29h32.79c-.03.09-.05.19-.05.29v8.03c0,.48.39.86.86.86s.86-.39.86-.86h0v-8.03c0-.1-.02-.19-.05-.29h4.64c.63,0,1.15-.51,1.15-1.15s-.51-1.15-1.15-1.15h-4.87v-2.29h5.45c.32,0,.57-.26.57-.58,0-.31-.26-.57-.57-.57h-5.45v-2.29h5.45Zm-39.85-3.44h33.26v2.29h-33.26v-2.29Zm33.26,9.17h-33.26v-2.29h33.26v2.29Zm0-3.44h-33.26v-2.29h33.26v2.29Z"/>
    <path class="cls-2" d="m442.42,351.98c.32,0,.57-.26.57-.58,0-.31-.26-.57-.57-.57h-5.45v-2.29h5.45c.32,0,.57-.26.57-.58,0-.31-.26-.57-.57-.57h-46.45c-.32,0-.57.26-.57.58,0,.31.26.57.57.57h5.45v2.29h-5.45c-.32,0-.57.26-.57.58,0,.31.26.57.57.57h5.45v2.29h-5.45c-.32,0-.57.26-.57.58,0,.31.26.57.57.57h5.45v2.29h-4.87c-.63,0-1.14.52-1.14,1.15,0,.63.51,1.14,1.14,1.14h4.64c-.03.09-.05.19-.05.29v8.03c0,.48.39.86.86.86s.86-.39.86-.86v-8.03c0-.1-.02-.19-.05-.29h32.79c-.03.09-.05.19-.05.29v8.03c0,.48.39.86.86.86s.86-.39.86-.86v-8.03c0-.1-.02-.19-.05-.29h4.64c.63,0,1.14-.52,1.14-1.15,0-.63-.51-1.14-1.14-1.14h-4.87v-2.29h5.45c.32,0,.57-.26.57-.58,0-.31-.26-.57-.57-.57h-5.45v-2.29h5.45Zm-39.85-3.44h33.26v2.29h-33.26v-2.29Zm33.26,9.17h-33.26v-2.29h33.26v2.29Zm0-3.44h-33.26v-2.29h33.26v2.29Z"/>
    <path class="cls-2" d="m586.95,276.74c.32,0,.57-.26.57-.58,0-.31-.26-.57-.57-.57h-5.45v-2.29h5.45c.32,0,.57-.26.57-.58,0-.31-.26-.57-.57-.57h-46.45c-.32,0-.57.26-.57.58,0,.31.26.57.57.57h5.45v2.29h-5.45c-.32,0-.57.26-.57.58,0,.31.26.57.57.57h5.45v2.29h-5.45c-.32,0-.57.26-.57.58,0,.31.26.57.57.57h5.45v2.29h-4.87c-.63,0-1.14.52-1.14,1.15,0,.63.51,1.14,1.14,1.14h4.64c-.03.09-.05.19-.05.29v8.03c0,.48.39.86.86.86s.86-.39.86-.86v-8.03c0-.1-.02-.19-.05-.29h32.79c-.03.09-.05.19-.05.29v8.03c0,.48.39.86.86.86s.86-.39.86-.86v-8.03c0-.1-.02-.19-.05-.29h4.64c.63,0,1.15-.51,1.15-1.14,0-.63-.51-1.15-1.14-1.15h-4.88v-2.29h5.45c.32,0,.57-.26.57-.58,0-.31-.26-.57-.57-.57h-5.45v-2.29h5.45Zm-39.85-3.44h33.26v2.29h-33.26v-2.29Zm33.26,9.17h-33.26v-2.29h33.26v2.29Zm0-3.44h-33.26v-2.29h33.26v2.29Z"/>
    <path class="cls-7" d="m369.27,420.92c0-14.71-11.93-49.6-26.64-49.6s-26.64,34.89-26.64,49.6c0,14.72,11.94,26.64,26.66,26.63,14.7,0,26.62-11.93,26.63-26.63Z"/>
    <path class="cls-4" d="m342.63,479.92c-.17,0-.3-.14-.3-.3v-62.2c0-.17.14-.31.3-.31s.31.14.31.3h0v62.2c0,.17-.14.3-.3.3Z"/>
    <path class="cls-4" d="m342.63,429.04c-.09,0-.17-.04-.23-.1l-15.32-17.67c-.11-.13-.09-.32.03-.43.13-.11.32-.09.43.03l15.32,17.67c.11.13.1.32-.03.43-.06.05-.13.07-.2.07h0Z"/>
    <path class="cls-4" d="m342.63,439.23c-.17,0-.3-.14-.3-.3,0-.08.03-.16.09-.22l8.71-8.71c.12-.12.31-.12.43,0s.12.31,0,.43l-8.71,8.71c-.06.06-.13.09-.22.09Z"/>
    <path class="cls-2" d="m115.14,132.35c0-14.71-11.93-49.6-26.64-49.6s-26.64,34.89-26.64,49.6c0,14.72,11.94,26.64,26.66,26.63,14.7,0,26.62-11.93,26.63-26.63Z"/>
    <path class="cls-4" d="m88.5,191.35c-.17,0-.3-.14-.3-.3v-62.2c0-.17.14-.3.31-.3.17,0,.3.14.3.3v62.2c0,.17-.14.3-.3.3h0Z"/>
    <path class="cls-4" d="m88.5,140.47c-.09,0-.17-.04-.23-.11l-15.32-17.67c-.11-.13-.1-.32.03-.43.13-.11.32-.1.43.03l15.32,17.67c.11.13.1.32-.03.43-.06.05-.13.07-.2.07Z"/>
    <path class="cls-4" d="m88.5,150.67c-.17,0-.3-.14-.3-.3,0-.08.03-.16.09-.22l8.71-8.71c.12-.12.31-.12.43,0s.12.31,0,.43l-8.71,8.71c-.06.06-.13.09-.22.09Z"/>
    <path class="cls-7" d="m59.64,190.95c0-6.14,4.99-11.12,11.13-11.11,6.14,0,11.11,4.98,11.11,11.11"/>
    <path class="cls-4" d="m70.76,190.95c-.17,0-.3-.13-.3-.3v-5.86c0-.17.14-.3.3-.3.17,0,.3.13.3.3v5.86c0,.17-.13.3-.3.3Z"/>
    <path class="cls-4" d="m70.76,188.93c-.07,0-.14-.03-.2-.07l-3.61-3.1c-.13-.11-.14-.3-.03-.42s.3-.14.42-.03l3.61,3.1c.13.11.14.3.03.42-.06.07-.14.1-.23.1h0Z"/>
    <path class="cls-7" d="m93.91,190.95c0-6.14,4.99-11.12,11.13-11.11,6.14,0,11.11,4.98,11.11,11.11"/>
    <path class="cls-4" d="m105.04,190.95c-.17,0-.3-.13-.3-.3v-5.86c0-.17.13-.3.3-.3.17,0,.3.13.3.3h0v5.86c0,.17-.13.3-.3.3Z"/>
    <path class="cls-4" d="m105.04,188.93c-.07,0-.14-.03-.2-.07l-3.61-3.1c-.13-.11-.14-.3-.03-.42.11-.12.3-.14.42-.03l3.61,3.1c.13.11.14.3.03.42-.06.07-.14.1-.23.1h0Z"/>
    <path class="cls-6" d="m674.91,420.09c0-14.71-11.93-49.6-26.64-49.6s-26.64,34.89-26.64,49.6c0,14.72,11.94,26.64,26.66,26.63,14.7,0,26.62-11.93,26.63-26.63Z"/>
    <path class="cls-4" d="m648.27,479.09c-.17,0-.3-.14-.3-.3v-62.2c0-.17.14-.31.3-.31s.31.14.31.3h0v62.2c0,.17-.14.3-.3.3Z"/>
    <path class="cls-4" d="m648.27,428.21c-.09,0-.17-.04-.23-.1l-15.32-17.67c-.11-.13-.09-.32.03-.43.13-.11.32-.09.43.03l15.32,17.67c.11.13.1.32-.03.43-.06.05-.13.07-.2.07h0Z"/>
    <path class="cls-4" d="m648.27,438.41c-.17,0-.3-.14-.3-.3,0-.08.03-.16.09-.22l8.71-8.71c.12-.12.31-.12.43,0s.12.31,0,.43l-8.71,8.71c-.06.06-.13.09-.22.09Z"/>
    <path class="cls-2" d="m256.67,424.75h-5.16c-.8,0-1.45-.65-1.45-1.45v-6.78c0-.8.65-1.45,1.45-1.45h5.16c.8,0,1.45.65,1.45,1.45v6.78c0,.8-.65,1.45-1.45,1.45Z"/>
    <path class="cls-2" d="m300.24,479.94h-26.46c-1.51,0-2.74-1.23-2.74-2.74v-51.31c0-1.51,1.23-2.74,2.74-2.74h26.46c1.51,0,2.74,1.23,2.74,2.74v51.31c0,1.51-1.23,2.74-2.74,2.74Z"/>
    <path class="cls-6" d="m284.43,479.94h-45.83c-1.51,0-2.74-1.23-2.74-2.74v-51.31c0-1.51,1.23-2.74,2.74-2.74h45.83c1.51,0,2.74,1.23,2.74,2.74v51.31c0,1.51-1.23,2.74-2.74,2.74Z"/>
    <path class="cls-6" d="m251.83,424.75h-5.16c-.8,0-1.45-.65-1.45-1.45v-6.78c0-.8.65-1.45,1.45-1.45h5.16c.8,0,1.45.65,1.45,1.45v6.78c0,.8-.65,1.45-1.45,1.45Z"/>
    <path class="cls-1" d="m258.61,448.47h-6.13c-.45,0-.81-.36-.81-.81v-9.36c0-.45.36-.81.81-.81h6.13c.45,0,.81.36.81.81v9.36c0,.45-.36.81-.81.81Z"/>
    <path class="cls-1" d="m270.55,448.47h-6.13c-.45,0-.81-.36-.81-.81v-9.36c0-.45.36-.81.81-.81h6.13c.45,0,.81.36.81.81v9.36c0,.45-.36.81-.81.81Z"/>
    <path class="cls-1" d="m258.61,465.58h-6.13c-.45,0-.81-.36-.81-.81v-9.36c0-.45.36-.81.81-.81h6.13c.45,0,.81.36.81.81v9.36c0,.45-.36.81-.81.81Z"/>
    <path class="cls-1" d="m270.55,465.58h-6.13c-.45,0-.81-.36-.81-.81v-9.36c0-.45.36-.81.81-.81h6.13c.45,0,.81.36.81.81v9.36c0,.45-.36.81-.81.81Z"/>
    <path class="cls-2" d="m72.99,263.91h-6.09c-.95,0-1.71-.77-1.71-1.71v-14.08c0-.95.77-1.71,1.71-1.71h6.09c.95,0,1.71.77,1.71,1.71v14.08c0,.95-.77,1.71-1.71,1.71Z"/>
    <path class="cls-2" d="m96.97,395.23h-31.21c-1.79,0-3.23-1.45-3.24-3.24v-125.99c0-1.79,1.45-3.23,3.24-3.24h31.21c1.79,0,3.23,1.45,3.24,3.24v125.99c0,1.79-1.45,3.23-3.24,3.24Z"/>
    <path class="cls-6" d="m78.32,395.23h-31.21c-1.79,0-3.23-1.45-3.24-3.24v-125.99c0-1.79,1.45-3.23,3.24-3.24h31.21c1.79,0,3.23,1.45,3.24,3.24v125.99c0,1.79-1.45,3.23-3.24,3.24Z"/>
    <path class="cls-6" d="m67.28,263.91h-6.09c-.95,0-1.71-.77-1.71-1.71v-14.08c0-.95.77-1.71,1.71-1.71h6.09c.95,0,1.71.77,1.71,1.71v14.08c0,.95-.77,1.71-1.71,1.71Z"/>
    <path class="cls-1" d="m59.28,291.31h-7.23c-.53,0-.95-.43-.95-.95v-11.04c0-.53.43-.95.95-.95h7.23c.53,0,.95.43.95.95v11.04c0,.53-.43.95-.95.95Z"/>
    <path class="cls-1" d="m73.37,291.31h-7.23c-.53,0-.95-.43-.95-.95v-11.04c0-.53.43-.95.95-.95h7.23c.53,0,.95.43.95.95v11.04c0,.53-.43.95-.95.95Z"/>
    <path class="cls-1" d="m59.28,311.49h-7.23c-.53,0-.95-.43-.95-.95v-11.04c0-.53.43-.95.95-.95h7.23c.53,0,.95.43.95.95v11.04c0,.53-.43.95-.95.95Z"/>
    <path class="cls-1" d="m73.37,311.49h-7.23c-.53,0-.95-.43-.95-.95v-11.04c0-.53.43-.95.95-.95h7.23c.53,0,.95.43.95.95v11.04c0,.53-.43.95-.95.95Z"/>
    <path class="cls-1" d="m59.28,331.66h-7.23c-.53,0-.95-.43-.95-.95v-11.04c0-.53.43-.95.95-.95h7.23c.53,0,.95.43.95.95v11.04c0,.53-.43.95-.95.95Z"/>
    <path class="cls-1" d="m73.37,331.66h-7.23c-.53,0-.95-.43-.95-.95v-11.04c0-.53.43-.95.95-.95h7.23c.53,0,.95.43.95.95v11.04c0,.53-.43.95-.95.95Z"/>
    <path class="cls-1" d="m59.28,351.83h-7.23c-.53,0-.95-.43-.95-.95v-11.04c0-.53.43-.95.95-.95h7.23c.53,0,.95.43.95.95v11.04c0,.53-.43.95-.95.95Z"/>
    <path class="cls-1" d="m73.37,351.83h-7.23c-.53,0-.95-.43-.95-.95v-11.04c0-.53.43-.95.95-.95h7.23c.53,0,.95.43.95.95v11.04c0,.53-.43.95-.95.95Z"/>
    <path class="cls-1" d="m59.28,372.01h-7.23c-.53,0-.95-.43-.95-.95v-11.04c0-.53.43-.95.95-.95h7.23c.53,0,.95.43.95.95v11.04c0,.53-.43.95-.95.95Z"/>
    <path class="cls-1" d="m73.37,372.01h-7.23c-.53,0-.95-.43-.95-.95v-11.04c0-.53.43-.95.95-.95h7.23c.53,0,.95.43.95.95v11.04c0,.53-.43.95-.95.95Z"/>
    <path class="cls-2" d="m557.39,424.93h-5.16c-.8,0-1.45-.65-1.45-1.45v-6.78c0-.8.65-1.45,1.45-1.45h5.16c.8,0,1.45.65,1.45,1.45v6.78c0,.8-.65,1.45-1.45,1.45Z"/>
    <path class="cls-2" d="m600.96,480.11h-26.46c-1.51,0-2.74-1.23-2.74-2.74v-51.31c0-1.51,1.23-2.74,2.74-2.74h26.46c1.51,0,2.74,1.23,2.74,2.74v51.31c0,1.51-1.23,2.74-2.74,2.74Z"/>
    <path class="cls-6" d="m585.14,480.11h-45.83c-1.51,0-2.74-1.23-2.74-2.74v-51.31c0-1.51,1.23-2.74,2.74-2.74h45.83c1.51,0,2.74,1.23,2.74,2.74v51.31c0,1.51-1.23,2.74-2.74,2.74Z"/>
    <path class="cls-6" d="m552.55,424.93h-5.16c-.8,0-1.45-.65-1.45-1.45v-6.78c0-.8.65-1.45,1.45-1.45h5.16c.8,0,1.45.65,1.45,1.45v6.78c0,.8-.65,1.45-1.45,1.45Z"/>
    <path class="cls-1" d="m559.33,448.65h-6.13c-.45,0-.81-.36-.81-.81v-9.36c0-.45.36-.81.81-.81h6.13c.45,0,.81.36.81.81v9.36c0,.45-.36.81-.81.81Z"/>
    <path class="cls-1" d="m571.27,448.65h-6.13c-.45,0-.81-.36-.81-.81v-9.36c0-.45.36-.81.81-.81h6.13c.45,0,.81.36.81.81v9.36c0,.45-.36.81-.81.81Z"/>
    <path class="cls-1" d="m559.33,465.75h-6.13c-.45,0-.81-.36-.81-.81v-9.36c0-.45.36-.81.81-.81h6.13c.45,0,.81.36.81.81v9.36c0,.45-.36.81-.81.81Z"/>
    <path class="cls-1" d="m571.27,465.75h-6.13c-.45,0-.81-.36-.81-.81v-9.36c0-.45.36-.81.81-.81h6.13c.45,0,.81.36.81.81v9.36c0,.45-.36.81-.81.81Z"/>
  </g>
</svg>