<?xml version="1.0" encoding="UTF-8"?>
<svg id="Camada_2" data-name="Camada 2" xmlns="http://www.w3.org/2000/svg" viewBox="0 0 456.05 741.55">
  <defs>
    <style>
      .cls-1 {
        fill: #ffb6b6;
      }

      .cls-2 {
        fill: #2f2e41;
      }

      .cls-3 {
        fill: #fff;
      }

      .cls-4 {
        fill: #3f3d56;
      }

      .cls-5 {
        fill: #e6e6e6;
      }

      .cls-6 {
        fill: #e4e4e4;
      }

      .cls-7 {
        fill: #f9a826;
      }
    </style>
  </defs>
  <g id="Camada_1-2" data-name="Camada 1">
    <path class="cls-1" d="m343.65,430.3l32.63-35.5-26.71-21.07-13.19,29.17-59.86,19.77c-5.74-3.3-13.07-1.32-16.37,4.42-3.3,5.74-1.32,13.07,4.42,16.37,5.39,3.1,12.25,1.56,15.81-3.53l63.27-9.63Z"/>
    <path class="cls-5" d="m403.47,350.1c5.91,13.19-30.17,50.87-30.17,50.87-9.87,7.98-11.43,27.96-23.67,30.18-33,6-12.48-.28-21,3-8.02,3.09-.63-23.32-6-25-3.07-.96,14-12,14-12,0,0,15.38-30.17,24.84-45.82,5.27-9.09,14.83-14.85,25.33-15.26,0,0,10.76.83,16.67,14.02Z"/>
    <path class="cls-4" d="m368.85,586.01H30.27c-16.71-.02-30.25-14.41-30.27-32.16V32.16C.02,14.41,13.56.02,30.27,0h338.58c16.71.02,30.25,14.41,30.27,32.16v521.69c-.02,17.75-13.56,32.14-30.27,32.16Z"/>
    <path class="cls-3" d="m369.04,564.62H29.93c-5.14,0-9.31-4.42-9.31-9.86V32.23c0-5.45,4.17-9.86,9.31-9.86h339.11c5.14,0,9.31,4.42,9.31,9.86v522.53c0,5.45-4.17,9.86-9.31,9.86Z"/>
    <path class="cls-6" d="m33.19,284.46c1.05-14.26,2.78-31.8,16.9-39.42,6.66-3.6,13.71-2.32,20.4.48,6.47,2.71,12.56,5.94,19.53,7.21,12.01,2.07,24.37.22,35.24-5.28,10.95-5.45,19.74-14.44,24.93-25.51,2.67-5.63,4.88-11.74,8.82-16.65,4.03-5.25,10.56-7.96,17.12-7.09,14.8,1.83,24.62,14.79,36.41,22.42,5.67,3.67,12.19,6.35,19.06,6.02,7.05-.34,13.43-3.67,18.83-8.03,11.46-9.24,17.72-23.53,29.74-32.14,11.59-8.09,26.51-9.68,39.54-4.2,12.32,5.32,21.05,17.23,23.35,30.33.55,3.23.69,6.52.42,9.78-.15,1.93,2.85,1.92,3,0,.91-13.77-4.66-27.18-15.07-36.24-10.64-9.18-25.5-12.16-39.02-8.63-6.88,1.82-13.21,5.32-18.42,10.18-5.56,5.13-9.95,11.34-14.64,17.23-4.58,5.75-9.63,11.3-16.06,15.01-6.23,3.8-13.81,4.66-20.74,2.36-6.94-2.34-12.82-7.16-18.37-11.78-5.72-4.76-11.42-9.52-18.3-12.55-6.4-2.81-13.73-4.18-20.39-1.41-6,2.5-9.97,7.68-12.92,13.28-2.99,5.69-5.12,11.82-8.6,17.25-3.37,5.19-7.7,9.7-12.76,13.28-10.27,7.33-22.75,10.9-35.34,10.1-6.84-.49-13.06-2.65-19.26-5.48-6.84-3.13-14.04-6.38-21.73-4.86-6.64,1.31-12.22,5.81-16.1,11.2-4.48,6.22-6.44,13.84-7.47,21.33-.54,3.92-.84,7.86-1.13,11.8-.14,1.93,2.86,1.92,3,0h0Z"/>
    <polygon class="cls-1" points="423.72 727.74 409.47 727.74 402.69 672.79 423.72 672.79 423.72 727.74"/>
    <path class="cls-2" d="m423.34,723.08l-15.2-6.17-.45-.18-8.39,6.36c-9.57,0-17.44,7.54-17.86,17.1-.02.25-.02.52-.02.78v.59h45.93v-18.46h-4.01Z"/>
    <polygon class="cls-1" points="390.36 714.48 376.92 719.21 352.29 669.63 372.12 662.65 390.36 714.48"/>
    <path class="cls-2" d="m388.45,710.22l-16.39-.78-.48-.02-5.81,8.78c-9.03,3.17-13.95,12.9-11.17,22.05.06.25.15.5.24.75l.19.55,43.33-15.25-6.13-17.42-3.79,1.33Z"/>
    <path class="cls-2" d="m428.75,490.83c13.03-.51-3.11,103.35-3.11,103.35,0,0,4.72,91.18,3.72,95.96s-.13,17.69-.13,17.69c-2.55-4.65-28.9-1.14-28.9-1.14l-3.58-92.41-18.3-74.04-25.37,49.63,24.31,76.18s9.85,9.11,8.8,12.71-26.84,11.72-31.57,11.9-2.6-5.83-2.83-11.76-22.53-60.83-30.37-79.51-1.75-45.02,2.26-64.16,25.07-55.06,25.07-55.06c26.15-29.49,66.96,11.15,80,10.64Z"/>
    <circle class="cls-1" cx="392.28" cy="293.43" r="24.86"/>
    <path class="cls-7" d="m379.85,334.71c-5.35,3.18-8.56,9.03-10.4,14.99-3.4,11.02-5.45,22.41-6.1,33.93l-7.07,68.7-13.65,33.83c29.2-2.53,93.94,9.36,93.94,9.36,0,0,2.41-.8,0-3.21s-4.75-.27-2.34-2.68.75.27-.05-2.13,0-.8.8-1.6-6.21-8.02-6.21-8.02l6.41-42.14,8.02-84.99c-9.62-12.03-28.97-19.12-28.97-19.12l-5-9-25,2-4.37,10.08Z"/>
    <path class="cls-1" d="m452.61,429.73l-6.17-36.36-21.47,3.89,1.89,31.8-9.4,66.2c-6.23,2.25-9.45,9.13-7.2,15.35s9.13,9.45,15.35,7.2c5.85-2.11,9.11-8.35,7.51-14.35l19.48-73.73Z"/>
    <path class="cls-7" d="m434.88,344.65c13.89,4,19.36,55.89,19.36,55.89,6.29,25.04-5.62,35.59-8.64,35.48-8.59-.31-13.35-7.66-18.09-4.65-2.71,1.72-3.22-18.09-3.22-18.09,0,0-9.74-18.43-15.58-35.76-3.54-9.89-1.77-20.91,4.7-29.19,0,0,7.58-7.68,21.47-3.68Z"/>
    <path class="cls-2" d="m420.72,285.83c-.08-4.04-.54-9.2-3.37-13.32-2.39-3.47-7.2-6.21-11.69-4.84.1-1.83-.83-3.56-2.42-4.48-1.72-.88-3.62-1.36-5.55-1.4-4.55-.42-9.27-.87-13.88,0-5.17.98-9.41,3.65-11.61,7.32l-.05.11-.45,2.17c-.12.59-.49,1.1-1.02,1.39-.53.3-1.16.34-1.72.12-.97-.36-2.05.13-2.41,1.1-.11.3-.15.62-.1.93l.12.87-1.3-.25c-1.01-.2-1.99.47-2.19,1.48-.07.34-.04.69.09,1.02l.36.99c-.54,0-1.06.23-1.43.63-.54.58-.64,1.45-.25,2.14,1.46,2.49,3.52,4.56,6,6.03,1.11.67,2.32,1.19,3.57,1.53.26.07.53.14.81.2,10.04,2.16,20.38,2.47,30.53.92-.6,2-.83,4.1-.68,6.18.18,2.41,1.68,4.52,3.9,5.48.46.16.94.27,1.42.34.46.08.92.19,1.36.34,2.06.76,3.12,3.04,2.37,5.1-.24.66-.66,1.25-1.2,1.7,0,0,2.14,1.77,2.41,1.68,1.05-.46,1.93-1.25,2.52-2.24,4.08-5.87,6.05-13.68,5.85-23.24Z"/>
    <circle class="cls-3" cx="201.54" cy="12.46" r="2.85"/>
    <path class="cls-4" d="m368.26,285.43H30.02c-.58,0-1.06-.47-1.06-1.06l.51-1.18,338.79.12c.58,0,1.06.47,1.06,1.05s-.47,1.06-1.05,1.06h0Z"/>
    <rect class="cls-4" x="92.29" y="278.03" width="2.08" height="5.92"/>
    <rect class="cls-4" x="154.44" y="244.03" width="2.08" height="39.92"/>
    <rect class="cls-4" x="216.73" y="196.03" width="2.08" height="87.92"/>
    <rect class="cls-4" x="279.01" y="155.03" width="2.08" height="128.92"/>
    <rect class="cls-4" x="341.3" y="249.03" width="2.08" height="34.92"/>
    <circle class="cls-7" cx="280.18" cy="141.49" r="6.35"/>
    <circle class="cls-7" cx="218.89" cy="178.75" r="6.35"/>
    <circle class="cls-7" cx="342.46" cy="237.33" r="6.35"/>
    <path id="a2bcaba5-fcc7-43c7-8c54-c107139343be-656" class="cls-4" d="m153.82,494.71v-74.94c0-.96,1.12-1.74,2.5-1.74h11.14c1.38,0,2.5.78,2.5,1.74h0v75.13l-16.14-.2Z"/>
    <path id="b02c718b-b277-4e02-ad4f-2608dd9924ba-657" class="cls-4" d="m190.62,494.96v-57.26c0-.92,1.12-1.67,2.5-1.67h11.14c1.38,0,2.5.75,2.5,1.67h0v57.14l-16.14.12Z"/>
    <path id="a6f13ee1-90c9-41e9-aa52-bae832a2d909-658" class="cls-4" d="m264.22,494.83v-29.12c-.1-.35,1.02-.65,2.5-.68h11.14c1.48.03,2.59.33,2.5.68v29.2l-16.14-.08Z"/>
    <path id="fa174473-4e9f-4d8b-98c3-8d6761a9e9bb-659" class="cls-4" d="m117.02,494.83v-29.12c0-.37,1.12-.68,2.5-.68h11.14c1.38,0,2.5.3,2.5.68v29.2l-16.14-.08Z"/>
    <path id="e966b75a-f3f6-4a21-bd4c-c130f0d0c74e-660" class="cls-7" d="m227.42,494.54v-140.63c0-1.8,1.12-3.27,2.5-3.27h11.14c1.38,0,2.5,1.46,2.5,3.27v140.99l-16.14-.37Z"/>
    <path class="cls-4" d="m328.38,496.2H76.38c-.55,0-1-.45-1-1s.45-1,1-1h252c.55,0,1,.45,1,1s-.45,1-1,1Z"/>
    <circle class="cls-7" cx="93.61" cy="265.1" r="6.35"/>
    <circle class="cls-7" cx="155.61" cy="230.1" r="6.35"/>
    <rect class="cls-7" x="20.62" y="22.37" width="357.73" height="69.74" rx="9.64" ry="9.64"/>
  </g>
</svg>