<?xml version="1.0" encoding="UTF-8"?>
<svg id="Camada_2" data-name="Camada 2" xmlns="http://www.w3.org/2000/svg" viewBox="0 0 420.95 659.57">
  <defs>
    <style>
      .cls-1 {
        fill: #2f2e41;
      }

      .cls-2 {
        fill: #fff;
      }

      .cls-3 {
        fill: #3f3d56;
      }

      .cls-4 {
        fill: #0d6b00;
      }

      .cls-5 {
        fill: #e6e6e6;
      }

      .cls-6 {
        fill: #ffb8b8;
      }

      .cls-7 {
        fill: #ccc;
      }

      .cls-8 {
        fill: #c663ff;
      }

      .cls-9 {
        fill: #f2f2f2;
      }
    </style>
  </defs>
  <g id="Camada_1-2" data-name="Camada 1">
    <path class="cls-9" d="m371,271.57H85.67c-10.2-.01-18.46-8.28-18.47-18.47V28.99c0-7.47,6.06-13.53,13.53-13.53h294.98c7.6,0,13.76,6.17,13.77,13.77v223.87c-.01,10.2-8.28,18.46-18.47,18.47Z"/>
    <path class="cls-2" d="m103.58,253.1h249.5c9.89,0,17.91-8.02,17.91-17.91V63.26c0-9.89-8.02-17.91-17.91-17.91H103.58c-9.89,0-17.91,8.02-17.91,17.91v171.92c0,9.89,8.02,17.91,17.91,17.91Z"/>
    <path class="cls-7" d="m389.22,27.94H66.93v-9.41c.01-10.23,8.31-18.52,18.54-18.53h285.2c10.23,0,18.53,8.3,18.54,18.53v9.41Z"/>
    <circle class="cls-2" cx="100.63" cy="14" r="4.8"/>
    <circle class="cls-2" cx="118.83" cy="14" r="4.8"/>
    <circle class="cls-2" cx="137.04" cy="14" r="4.8"/>
    <path class="cls-4" d="m121.94,125.91h-12.36c-1.4,0-2.53-1.13-2.53-2.53v-12.36c0-1.4,1.13-2.53,2.53-2.53h12.36c1.4,0,2.53,1.13,2.53,2.53v12.36c0,1.4-1.13,2.53-2.53,2.53Z"/>
    <path class="cls-3" d="m121.94,157.93h-12.36c-1.4,0-2.53-1.13-2.53-2.53v-12.36c0-1.4,1.13-2.53,2.53-2.53h12.36c1.4,0,2.53,1.13,2.53,2.53v12.36c0,1.4-1.13,2.53-2.53,2.53Z"/>
    <path class="cls-7" d="m121.94,189.94h-12.36c-1.4,0-2.53-1.13-2.53-2.53v-12.36c0-1.4,1.13-2.53,2.53-2.53h12.36c1.4,0,2.53,1.13,2.53,2.53v12.36c0,1.4-1.13,2.53-2.53,2.53Z"/>
    <path class="cls-7" d="m202.82,119.73h-59.54c-1.4,0-2.52-1.14-2.52-2.53,0-1.39,1.13-2.52,2.52-2.52h59.54c1.4,0,2.53,1.13,2.53,2.52,0,1.4-1.13,2.53-2.52,2.53,0,0,0,0-.01,0Z"/>
    <path class="cls-7" d="m202.82,151.75h-59.54c-1.4,0-2.52-1.14-2.52-2.53,0-1.39,1.13-2.52,2.52-2.52h59.54c1.4,0,2.53,1.13,2.53,2.53s-1.13,2.53-2.53,2.53Z"/>
    <path class="cls-7" d="m202.82,183.76h-59.54c-1.4,0-2.53-1.13-2.53-2.53,0-1.4,1.13-2.53,2.53-2.53h59.54c1.4,0,2.53,1.13,2.53,2.53s-1.13,2.53-2.53,2.53h0Z"/>
    <path class="cls-4" d="m312.16,220.1c.06-.95.09-1.9.09-2.87,0-26.13-21.18-47.32-47.32-47.32v50.19h47.23Z"/>
    <path class="cls-3" d="m292.62,154.84v-56.19c-29.26,0-52.98,23.72-52.98,52.98,0,29.26,23.72,52.98,52.98,52.98,28.01,0,51.19-21.81,52.88-49.77h-52.88Z"/>
    <path class="cls-6" d="m265.75,384.01c.33.45.63.93.89,1.43l50.11,5.63,7.29-9.85,16.3,9.06-14.35,23.92-61.4-16.11c-4.25,4.09-11.01,3.95-15.09-.3-4.09-4.25-3.95-11.01.3-15.09,4.25-4.09,11.01-3.95,15.09.3.31.32.59.65.86,1.01Z"/>
    <path class="cls-9" d="m254.44,616L9.04,470.42c-8.77-5.21-11.66-16.54-6.46-25.31l114.35-192.74c3.82-6.42,12.12-8.54,18.55-4.73l253.69,150.51c6.53,3.89,8.69,12.33,4.82,18.87l-114.23,192.54c-5.21,8.77-16.54,11.66-25.31,6.46Z"/>
    <path class="cls-2" d="m33.88,463.67l214.58,127.3c8.51,5.05,19.5,2.24,24.55-6.27h0l87.72-147.86c5.05-8.51,2.24-19.5-6.27-24.55h0l-214.58-127.3c-8.51-5.05-19.5-2.24-24.55,6.27L27.61,439.12c-5.05,8.51-2.24,19.5,6.27,24.55Z"/>
    <path class="cls-7" d="m394.42,415.76L117.24,251.33l4.8-8.09c5.23-8.79,16.6-11.69,25.4-6.48l245.28,145.52c8.8,5.23,11.7,16.59,6.49,25.4l-4.8,8.09Z"/>
    <circle class="cls-2" cx="153.33" cy="256.53" r="4.8"/>
    <circle class="cls-2" cx="168.99" cy="265.82" r="4.8"/>
    <circle class="cls-2" cx="184.65" cy="275.11" r="4.8"/>
    <rect class="cls-5" x="265.81" y="474.89" width=".55" height="3.28" transform="translate(-279.51 462.23) rotate(-59.32)"/>
    <path class="cls-5" d="m326.06,440.58l-6.37-3.78.31-.53,6.37,3.78-.31.53Zm-12.75-7.56l-6.37-3.78.31-.53,6.37,3.78-.31.53Zm-12.75-7.56l-6.37-3.78.31-.53,6.37,3.78-.31.53Zm-12.75-7.56l-6.37-3.78.31-.53,6.37,3.78-.31.53Zm-12.75-7.56l-6.37-3.78.31-.53,6.37,3.78-.31.53Zm-12.75-7.56l-6.37-3.78.31-.53,6.37,3.78-.31.53Zm-12.75-7.56l-6.37-3.78.31-.53,6.37,3.78-.31.53Zm-12.75-7.56l-6.37-3.78.31-.53,6.37,3.78-.31.53Zm-12.75-7.56l-6.37-3.78.31-.53,6.37,3.78-.31.53Zm-12.75-7.56l-6.37-3.78.31-.53,6.37,3.78-.31.53Zm-12.75-7.56l-6.37-3.78.31-.53,6.37,3.78-.31.53Zm-12.75-7.56l-6.37-3.78.31-.53,6.37,3.78-.31.53Zm-12.75-7.56l-6.37-3.78.31-.53,6.37,3.78-.31.53Zm-12.75-7.56l-6.37-3.78.31-.53,6.37,3.78-.31.53Zm-12.75-7.56l-6.37-3.78.31-.53,6.37,3.78-.31.53Zm-12.75-7.56l-6.37-3.78.31-.53,6.37,3.78-.31.53Z"/>
    <rect class="cls-5" x="120.39" y="316.55" width=".61" height="3.67" transform="translate(-214.71 259.74) rotate(-59.32)"/>
    <rect class="cls-5" x="201.27" y="430.65" width=".61" height="3.67" transform="translate(-273.22 385.18) rotate(-59.32)"/>
    <path class="cls-5" d="m193.56,428.08l-6.28-3.72.31-.53,6.28,3.72-.31.53Zm-12.56-7.45l-6.28-3.72.31-.53,6.28,3.72-.31.53Zm-12.56-7.45l-6.28-3.72.31-.53,6.28,3.72-.31.53Zm-12.56-7.45l-6.28-3.72.31-.53,6.28,3.72-.31.53Zm-12.56-7.45l-6.28-3.72.31-.53,6.28,3.72-.31.53Zm-12.56-7.45l-6.28-3.72.31-.53,6.28,3.72-.31.53Zm-12.56-7.45l-6.28-3.72.31-.53,6.28,3.72-.31.53Zm-12.56-7.45l-6.28-3.72.31-.53,6.28,3.72-.31.53Z"/>
    <rect class="cls-5" x="91.38" y="365.45" width=".61" height="3.67" transform="translate(-270.98 258.73) rotate(-59.32)"/>
    <rect class="cls-5" x="126.02" y="417.28" width=".61" height="3.67" transform="translate(-298.59 313.92) rotate(-59.32)"/>
    <path class="cls-5" d="m118.14,414.61l-6.46-3.83.31-.53,6.46,3.83-.31.53Zm-12.92-7.66l-6.46-3.83.31-.53,6.46,3.83-.31.53Zm-12.92-7.66l-6.46-3.83.31-.53,6.46,3.83-.31.53Z"/>
    <rect class="cls-5" x="77.65" y="388.59" width=".61" height="3.67" transform="translate(-297.6 258.26) rotate(-59.32)"/>
    <rect class="cls-5" x="102.6" y="456.77" width=".61" height="3.67" transform="translate(-344.01 313.11) rotate(-59.32)"/>
    <path class="cls-5" d="m94.71,454.09l-6.46-3.83.31-.53,6.46,3.83-.31.53Zm-12.92-7.66l-6.46-3.83.31-.53,6.46,3.83-.31.53Zm-12.92-7.66l-6.46-3.83.31-.53,6.46,3.83-.31.53Z"/>
    <rect class="cls-5" x="54.23" y="428.07" width=".61" height="3.67" transform="translate(-343.02 257.45) rotate(-59.32)"/>
    <path class="cls-4" d="m70.35,440.18l181.84,107.88c9.17,5.43,21.01,2.41,26.46-6.75l53.13-89.56-.37-.2-120.55,30.77-9.55-37.39c-.35-1.4-1.34-2.56-2.67-3.12-1-.4-2.11-.47-3.16-.18l-63.17,16.12-6.98-27.34c-.63-2.48-3.16-3.98-5.64-3.35,0,0,0,0,0,0-.43.11-41.53,11.01-49.35,13.11Z"/>
    <path class="cls-3" d="m68.85,440.19l-.15-.59,50.55-12.9c2.78-.71,5.61.97,6.32,3.75l6.84,26.8,62.82-16.04c2.78-.71,5.61.97,6.32,3.75l9.41,36.85,121.18-30.93.15.59-121.77,31.09-9.56-37.44c-.63-2.45-3.12-3.93-5.58-3.31,0,0,0,0,0,0l-63.41,16.19-6.99-27.39c-.63-2.45-3.12-3.93-5.58-3.31l-50.55,12.9Z"/>
    <circle class="cls-3" cx="127.91" cy="420.05" r="4.28"/>
    <circle class="cls-3" cx="203.15" cy="433.42" r="4.28"/>
    <circle class="cls-3" cx="291.49" cy="489.73" r="3.82"/>
    <path class="cls-8" d="m336.78,398.85c-.4-.18-.78-.41-1.12-.7l-20.14-16.97c-1.93-1.63-2.18-4.51-.55-6.45.08-.1.17-.19.26-.28l18.28-18.35c1.59-1.61,4.11-1.81,5.93-.47l13.82,10.04c1.78,1.29,2.39,3.67,1.45,5.66l-11.96,25.28c-1.06,2.24-3.7,3.23-5.97,2.24Z"/>
    <polygon class="cls-6" points="415.33 638.81 403.3 642.09 384.96 597.25 402.71 592.42 415.33 638.81"/>
    <path class="cls-1" d="m393.53,641.05l23.44-6.38h0l3.97,14.61h0l-37.81,10.29h0l-.07-.24c-2.16-7.93,2.52-16.11,10.46-18.27h0Z"/>
    <polygon class="cls-6" points="312.5 647.99 300.03 647.99 294.1 599.91 312.5 599.91 312.5 647.99"/>
    <path class="cls-1" d="m290.88,644.43h24.29v15.14h-39.18v-.25c0-8.22,6.67-14.89,14.89-14.89Z"/>
    <circle class="cls-6" cx="331.28" cy="305.54" r="24.97"/>
    <path class="cls-1" d="m311.74,613.71h-17.04c-2.42,0-4.42-1.88-4.57-4.29-5.08-80.7-2.11-138.59,9.34-182.17.05-.19.11-.38.19-.56l.91-2.28c.69-1.74,2.38-2.88,4.25-2.88h35.03c1.34,0,2.61.58,3.47,1.6l4.76,5.55c.09.11.18.22.26.33,21.46,29.92,40.69,88.42,62.96,167.05.68,2.38-.65,4.86-3.01,5.61l-18.31,5.86c-2.17.68-4.52-.32-5.52-2.37l-47.51-98.54c-.85-1.77-2.98-2.51-4.75-1.66-1.07.52-1.82,1.54-1.98,2.72l-13.96,102.08c-.32,2.26-2.25,3.95-4.53,3.96Z"/>
    <path class="cls-4" d="m346.16,429.08s-.1,0-.14,0l-42.55-1.34c-2.26-.06-4.13-1.77-4.4-4.02-5.39-43.67,9.4-55.36,16.01-58.36,1.12-.51,1.9-1.57,2.05-2.79l.57-4.58c.1-.81.41-1.58.9-2.22,10.37-13.43,24.52-17.73,32.03-19.09,2.48-.45,4.86,1.21,5.3,3.69.01.07.03.15.03.23l.86,6.57c.09.63.34,1.22.73,1.72,21.62,28.26-2.47,69.99-7.51,78.06h0c-.84,1.33-2.3,2.14-3.88,2.14Z"/>
    <path class="cls-1" d="m357.62,290c-1.35-5.62-2.34-11.4-2.97-17.25-.2-3.41.44-7.08,2.24-9.43,3.37-4.4,9.1-2.31,12.62,1.86,5.09,6.02,7.63,15.28,8.59,24.44s.54,18.47.77,27.72c.23,9.25,1.19,18.76,4.61,26.72s9.76,14.07,16.45,13.4c2.7-.2,5.27-1.7,7.25-4.24,1.98-2.59,2.92-6.34,2.52-10.07,3.42,8.45,1.69,19.89-3.42,26.53-5.1,6.64-12.95,8.52-19.66,5.68s-12.23-9.94-15.52-18.48c-3.3-8.54-4.51-18.4-4.33-28.07.13-7.43,1.05-14.91.14-22.23s-4.23-14.76-9.47-16.48l.17-.09Z"/>
    <path class="cls-1" d="m326.31,299.63c-1.23,4.12-5.94,6.65-10.18,5.96-4.3-.89-7.76-4.08-9.01-8.28-1.16-4.19-.69-8.66,1.33-12.5,2.25-4.66,6.26-8.23,11.14-9.92,4.93-1.64,10.36-.77,14.54,2.32.45-1.88,1.88-3.38,3.74-3.91,1.84-.5,3.78-.47,5.61.08,5.26,1.5,9.81,4.81,12.86,9.35,3.01,4.53,4.99,9.65,5.83,15.02,1.43,8.05.91,16.85-3.62,23.67s-13.77,10.84-21.28,7.59c-.47-2.39.64-4.8,1.92-6.88s2.8-4.09,3.3-6.48-.45-5.31-2.76-6.09c-1.97-.67-4.07.41-6.15.54-3.71.23-6.91-2.59-7.14-6.3-.07-1.18.16-2.35.68-3.4l-.79-.77Z"/>
    <path class="cls-6" d="m263.01,402.52c.41.38.8.8,1.14,1.24l50.28-3.91,5.3-11.04,17.71,5.82-9.58,26.2-63.33-4.25c-3.4,4.81-10.06,5.96-14.88,2.55-4.81-3.4-5.96-10.06-2.55-14.88,3.4-4.81,10.06-5.96,14.88-2.55.36.25.7.53,1.03.83h0Z"/>
    <path class="cls-4" d="m337.18,412.07c-.42-.12-.83-.3-1.2-.54l-22.27-14.06c-2.14-1.35-2.77-4.17-1.43-6.31.07-.11.14-.21.22-.31l15.61-20.67c1.35-1.81,3.83-2.35,5.81-1.28l15.06,8.06c1.94,1.04,2.87,3.31,2.21,5.41l-8.4,26.67c-.74,2.36-3.23,3.7-5.61,3.03h0Z"/>
  </g>
</svg>