<?xml version="1.0" encoding="UTF-8"?>
<svg id="Camada_2" data-name="Camada 2" xmlns="http://www.w3.org/2000/svg" viewBox="0 0 415.15 419.53">
  <defs>
    <style>
      .cls-1 {
        fill: #ffb6b6;
      }

      .cls-2 {
        fill: #2f2e41;
      }

      .cls-3 {
        fill: #fff;
      }

      .cls-4 {
        fill: #3f3d56;
      }

      .cls-5, .cls-6 {
        fill: #536dfe;
      }

      .cls-6 {
        opacity: .3;
      }

      .cls-7 {
        fill: #e6e6e6;
      }

      .cls-8 {
        fill: #f2f2f2;
      }
    </style>
  </defs>
  <g id="Camada_1-2" data-name="Camada 1">
    <polygon class="cls-8" points="414.16 161.5 414.13 163.5 168.53 163.5 168.53 161.5 414.16 161.5"/>
    <polygon class="cls-8" points="414.65 119 414.63 121 168.53 121 168.53 119 414.65 119"/>
    <path class="cls-8" d="m413.61,207.9l-.02,2h-250.54V0l2,.02v125.61c0,12.86,2.95,25.03,8.21,35.87.33.67.66,1.34,1.01,2,13.7,26.38,41.28,44.4,73.06,44.4h166.28Z"/>
    <polygon class="cls-6" points="392.78 318.34 392 111.15 363.38 110.65 321.97 80.04 304.22 77.5 277.19 95.08 255.7 141.99 232.87 162.5 204.34 162.5 185.18 153.42 171.43 151.56 152.77 166.95 140.27 205.54 126.29 222.09 108.46 224.85 95.98 219.25 84.1 222.35 72.87 247.59 69.84 322.34 392.78 318.34"/>
    <polygon class="cls-8" points="415.15 76.5 415.13 78.5 168.53 78.5 168.53 76.5 415.15 76.5"/>
    <path class="cls-8" d="m0,289.7c-.24,23.99,18.11,43.66,41.02,43.97l317.56,5.03c14.85.13,28.62-8.08,36.09-21.52l-309.48-4.93h0c-22.91-.31-41.26-19.98-41.02-43.97"/>
    <path class="cls-1" d="m130.14,85.66c.69,4.3-2.82,8.32-7.18,8.19l-14.46,32.59-10-1.78,17.46-38.59c.29-3.21,2.73-5.94,6.06-6.43,3.9-.58,7.54,2.11,8.12,6.01h0Z"/>
    <path class="cls-5" d="m51.88,185.8h0c4.13,4.27,10.81,4.73,15.48,1.06l34.22-26.84,16.95-52.72-12.33-5.7-23.16,46.18-29.45,20.44c-5.87,4.07-6.69,12.44-1.72,17.58h0Z"/>
    <path class="cls-2" d="m59.32,167.49c-.89-.61-1.84-1.15-2.82-1.61.02-.26.03-.53.03-.79.05-2.63-.47-5.26-1.53-7.67.14,2.12-.51,4.28-1.79,5.97-.22.3-.46.58-.72.85-.07.07-.14.14-.21.2-1.41-.32-2.87-.47-4.32-.45-1.61.03-3.21.25-4.8.56-1.99.38-3.97.91-5.95,1.35-.12.03-.23.05-.35.08-.91-2.47-2.34-4.73-4.2-6.59.89,1.92,1.07,4.17.49,6.21-.1.36-.22.71-.37,1.05-2.16.22-4.32.16-6.39-.44-.88-.25-1.71-.59-2.52-.99-2.86-1.4-5.44-3.48-8.39-4.73-1.59-.68-3.27-1.1-4.99-1.27-1.44-8.25-1.04-15.57,3.38-20.86,0-12.07,9.79-21.86,21.86-21.86l10.02,3.48,10.12,3.52c4.76,12.7,12.33,23.88,3.45,43.99Z"/>
    <g>
      <polygon class="cls-1" points="75.45 396.14 82.3 399.39 98.38 373.91 88.27 369.11 75.45 396.14"/>
      <path class="cls-2" d="m91.93,414.44l-7.32-12.68,2.33-4.9-2.42-.98-7.51-3.02-1.84-.74-9.66,16.64,5.14,2.44,3.22-4.42.04,5.97,13.63,6.46c1.69.8,3.72.07,4.52-1.61.48-1.01.43-2.18-.13-3.15h0Z"/>
    </g>
    <g>
      <polygon class="cls-1" points="176.67 299.09 182.14 293.84 164 269.78 155.93 277.54 176.67 299.09"/>
      <path class="cls-2" d="m199.62,290.17l-14.45,2.35-3.76-3.91-1.77,1.92-5.48,5.95-1.35,1.46,12.14,14.93,4.1-3.95-2.99-4.57,5.6,2.07,10.87-10.45c1.35-1.3,1.39-3.45.09-4.8-.77-.8-1.89-1.17-2.99-1h0Z"/>
    </g>
    <path class="cls-2" d="m60.87,255.5l-27-6,.18,8.21s-28.18,21.79-2.18,42.79,70,23,70,23l-20,58,10,4,39.37-53.77c5.3-9.64,3.8-21.79-4.09-29.44-1.53-1.48-3.28-2.79-5.28-3.79-12-6-44-18-44-18l-16-16-1-9h0Z"/>
    <path class="cls-2" d="m59.87,270.5l55.46-35.29c6.22-3.96,14.33-3.26,19.78,1.71l41.77,45.58-11,9-43-30s-25,28-32,28-31-19-31-19Z"/>
    <path class="cls-5" d="m29.87,273.35s-17.03-9.65-9.02-17.83c8.02-8.17,9.02-34.02,9.02-34.02l-13-39.16,10-7,3-11.85,18-1v8.85l18.03,19.96c6.13,6.78,7.98,16.41,4.8,24.98l-4.83,13.05s14,37,2,42-38,2-38,2Z"/>
    <path class="cls-8" d="m119.95,130.12l-47.3-42.21c-7.14-6.33-7.8-17.26-1.47-24.41s17.26-7.8,24.41-1.47l.08.07,47.3,42.21c7.1,6.38,7.69,17.31,1.31,24.41-6.35,7.07-17.22,7.69-24.33,1.38h0Z"/>
    <circle class="cls-1" cx="43.11" cy="141.21" r="17.98"/>
    <path class="cls-2" d="m52.48,137.5c-.13-2.09-.64-4.16-1.48-6.08.14,2.12-.51,4.28-1.79,5.97-.03.04-.06.07-.08.11-3.31,1.6-8.88.7-14.26,0v-20h11c10.8-3.64,19.69,4.28,20,20-5.18.94-10.04,1.45-13.39,0h0Z"/>
    <path class="cls-2" d="m43.16,164.55c-1.99.38-3.97.91-5.95,1.35-.12.03-.23.05-.35.08-.91-2.47-2.34-4.73-4.2-6.59.89,1.92,1.07,4.17.49,6.21-.1.36-.22.71-.37,1.05-2.16.22-4.32.16-6.39-.44-.88-.25-1.71-.59-2.52-.99v-42.72h21c-8.15,13.88-9.31,27.88-1.71,42.05Z"/>
    <path class="cls-2" d="m39.19,114.55c-.38-1.2-1.85-1.77-3.09-1.58s-2.32.95-3.34,1.69c1-1.08.49-3-.73-3.82-1.22-.83-2.85-.77-4.25-.34s-2.69,1.2-4.06,1.72-2.94.81-4.3.25c.53,1.67,1.55,3.17,2.91,4.28-1.6-.28-3.34.55-4.13,1.97-.79,1.42-.57,3.34.52,4.55,1.25,1.39,3.37,1.71,5.18,1.28,1.82-.44,3.41-1.51,4.94-2.58,1.53-1.07,3.09-2.18,4.88-2.7l-5.89,3.71c3.01-1.25,5.93-2.72,8.73-4.39.75-.45,1.5-.92,2.05-1.6.55-.68.86-1.61.59-2.44Z"/>
    <path class="cls-4" d="m11.43,294.19c-.14-4.44,3.84-7.59,7.9-8.41,5.16-1.03,10.43,1.63,14.81,4.05,7.82,4.32,16.89.04,25.24,5.28,12.33,7.75,14.88-3.86,14.1-17.56-.57-10.1,1.87-20.03,2.4-29.97.5-9.57,3.11-19.3,11.22-25.24,3.41-2.5,7.65-3.97,11.88-3.1,4.52.94,8.13,4.18,12.48,5.6,8.1,2.63,16.62-.92,22.7-6.33,7.07-6.3,10.52-15.15,12.95-24.08,2.52-9.26,4.06-18.96,8.67-27.49,3.94-7.28,10.13-14,18.66-15.39,8.36-1.36,16.36,2.74,23.58,6.41,7.42,3.78,15.1,7.87,23.6,8.22,18.22.75,32.3-14.75,40.2-29.49,9.01-16.83,14.24-37.25,30.26-49.14,6.88-5.11,15.62-8.68,24.32-7.25,8.79,1.45,15.21,7.82,21.05,14.06,5.98,6.38,11.92,12.67,20.02,16.35,7.95,3.61,16.83,4.96,25.49,3.82,4.18-.55,8.18-1.7,12.05-3.37,1.77-.76.24-3.35-1.51-2.59-8.49,3.67-18.15,4.3-27.1,2.1-9-2.22-16.16-7.25-22.52-13.84-5.82-6.03-11.28-12.9-18.89-16.77-7.7-3.92-16.52-3.82-24.46-.66-8.05,3.21-15.03,8.88-20.32,15.7-6.15,7.92-10.23,17.21-14.34,26.29-7.43,16.41-16.94,35.78-35.94,40.88-17.99,4.83-31.29-11.09-48.07-13.61-8.25-1.24-16.05,1.61-21.89,7.51-6.05,6.1-9.54,14.17-11.85,22.31-2.83,9.98-4.29,20.68-9.48,29.82-4.11,7.23-11.71,13.93-20.36,14.43-4.95.29-8.74-2-12.98-4.21-3.82-1.99-7.8-3.01-12.09-2.18-8.03,1.57-14.27,8.67-17.34,15.9-7.57,17.85,2.85,40.78-11.96,56.05-2.71,2.79-6.18,4.89-10.1,5.31-5.25.57-10.16-1.87-14.62-4.35-7.69-4.28-17.43-10.01-25.86-4.07-2.99,2.11-5,5.29-4.89,9.03.06,1.93,3.06,1.93,3,0h0Z"/>
    <circle class="cls-5" cx="310.87" cy="77.5" r="9"/>
    <circle class="cls-5" cx="224.52" cy="162.5" r="9"/>
    <g>
      <path class="cls-3" d="m77.7,348.07h-43.56c-3.66,0-6.64-2.98-6.64-6.64v-43.56c0-3.66,2.98-6.64,6.64-6.64h43.56c3.66,0,6.64,2.98,6.64,6.64v43.56c0,3.66-2.98,6.64-6.64,6.64Z"/>
      <path class="cls-7" d="m77.7,348.07h-43.56c-3.66,0-6.64-2.98-6.64-6.64v-43.56c0-3.66,2.98-6.64,6.64-6.64h43.56c3.66,0,6.64,2.98,6.64,6.64v43.56c0,3.66-2.98,6.64-6.64,6.64Zm-43.56-55.78c-3.08,0-5.58,2.5-5.58,5.58v43.56c0,3.08,2.5,5.58,5.58,5.58h31.05c9.99,0,18.1-8.1,18.1-18.1v-31.05c0-3.08-2.5-5.58-5.58-5.58h-43.56Z"/>
    </g>
    <path class="cls-1" d="m36.47,297.97c-3.61-2.45-4.13-7.75-1.05-10.84l-13.85-32.86,8.15-6.06,16.16,39.15c2.15,2.41,2.46,6.05.54,8.82-2.25,3.24-6.7,4.05-9.95,1.8h0Z"/>
    <path class="cls-5" d="m26.28,178.37h0c-5.92-.49-11.25,3.57-12.35,9.4l-8.06,42.73,25,51,13-6-16-48,8.69-34.77c1.73-6.93-3.16-13.77-10.28-14.36h0Z"/>
    <path class="cls-7" d="m37.84,307.34c-.83,0-1.5.67-1.5,1.5v1c0,.83.67,1.5,1.5,1.5h35c.83,0,1.5-.67,1.5-1.5v-1c0-.83-.67-1.5-1.5-1.5h-35Z"/>
    <path class="cls-7" d="m37.84,318.34c-.83,0-1.5.67-1.5,1.5v1c0,.83.67,1.5,1.5,1.5h35c.83,0,1.5-.67,1.5-1.5v-1c0-.83-.67-1.5-1.5-1.5h-35Z"/>
    <path class="cls-7" d="m37.84,329.34c-.83,0-1.5.67-1.5,1.5v1c0,.83.67,1.5,1.5,1.5h35c.83,0,1.5-.67,1.5-1.5v-1c0-.83-.67-1.5-1.5-1.5h-35Z"/>
  </g>
</svg>